/* XPM */
static char * exit_o_xpm[] = {
"48 48 750 2",
"  	c None",
". 	c #72751B",
"+ 	c #6F4F36",
"@ 	c #72533A",
"# 	c #623F25",
"$ 	c #856E56",
"% 	c #70523B",
"& 	c #948166",
"* 	c #958163",
"= 	c #95805F",
"- 	c #958060",
"; 	c #958161",
"> 	c #705239",
", 	c #866D4F",
"' 	c #968162",
") 	c #624027",
"! 	c #887052",
"~ 	c #897153",
"{ 	c #866C4E",
"] 	c #876D4E",
"^ 	c #8A7354",
"/ 	c #8A7254",
"( 	c #9A8667",
"_ 	c #684930",
": 	c #856C4D",
"< 	c #66452B",
"[ 	c #644329",
"} 	c #634127",
"| 	c #624127",
"1 	c #624024",
"2 	c #614026",
"3 	c #897152",
"4 	c #988467",
"5 	c #5D3B23",
"6 	c #5A3721",
"7 	c #5A3620",
"8 	c #856B4D",
"9 	c #6E5034",
"0 	c #6E4F34",
"a 	c #6D4E34",
"b 	c #6E4F33",
"c 	c #907A5D",
"d 	c #6D4E33",
"e 	c #866C4D",
"f 	c #856B4C",
"g 	c #887051",
"h 	c #7B7464",
"i 	c #7B7364",
"j 	c #5B3923",
"k 	c #887152",
"l 	c #866D4E",
"m 	c #624026",
"n 	c #7D796A",
"o 	c #59361F",
"p 	c #5A361E",
"q 	c #71563D",
"r 	c #63462F",
"s 	c #847F70",
"t 	c #848071",
"u 	c #7E796A",
"v 	c #838071",
"w 	c #908E83",
"x 	c #5C3922",
"y 	c #5F3D25",
"z 	c #5E3D25",
"A 	c #5F3B25",
"B 	c #8C8778",
"C 	c #8D8879",
"D 	c #938F83",
"E 	c #5E3C25",
"F 	c #5F3E27",
"G 	c #614029",
"H 	c #7F7B6E",
"I 	c #7F7C6E",
"J 	c #64432D",
"K 	c #603F28",
"L 	c #846F55",
"M 	c #6B5039",
"N 	c #929085",
"O 	c #736B5C",
"P 	c #5B3921",
"Q 	c #6F6553",
"R 	c #706554",
"S 	c #908C7E",
"T 	c #979489",
"U 	c #5E3B24",
"V 	c #5D3B26",
"W 	c #848075",
"X 	c #817D70",
"Y 	c #64442E",
"Z 	c #836E55",
"` 	c #6A4F39",
" .	c #878579",
"..	c #969489",
"+.	c #736A5C",
"@.	c #5A3820",
"#.	c #8C8879",
"$.	c #8D8979",
"%.	c #908D7E",
"&.	c #5C3B23",
"*.	c #5C3A24",
"=.	c #8C887E",
"-.	c #848175",
";.	c #62412B",
">.	c #61402B",
",.	c #836D54",
"'.	c #694E38",
").	c #878578",
"!.	c #888579",
"~.	c #6A5F53",
"{.	c #5A3720",
"].	c #888578",
"^.	c #8A8678",
"/.	c #99968A",
"(.	c #5C3A22",
"_.	c #5B3A24",
":.	c #787368",
"<.	c #878476",
"[.	c #7D7665",
"}.	c #5F3E28",
"|.	c #826C53",
"1.	c #694E37",
"2.	c #898679",
"3.	c #888679",
"4.	c #969388",
"5.	c #6B6155",
"6.	c #5A371F",
"7.	c #8C8779",
"8.	c #939083",
"9.	c #5B3721",
"0.	c #787468",
"a.	c #918F83",
"b.	c #64422C",
"c.	c #7C7263",
"d.	c #674C36",
"e.	c #655A4D",
"f.	c #665B4F",
"g.	c #5A361F",
"h.	c #868478",
"i.	c #908E82",
"j.	c #766E64",
"k.	c #756E64",
"l.	c #5B3A23",
"m.	c #777267",
"n.	c #918E83",
"o.	c #5C3821",
"p.	c #5D3B25",
"q.	c #816C52",
"r.	c #644831",
"s.	c #6A6155",
"t.	c #593720",
"u.	c #928F84",
"v.	c #918E84",
"w.	c #675D51",
"x.	c #675E52",
"y.	c #6D6355",
"z.	c #6C6354",
"A.	c #6C6355",
"B.	c #58351E",
"C.	c #5B3922",
"D.	c #787467",
"E.	c #777266",
"F.	c #757164",
"G.	c #858276",
"H.	c #878477",
"I.	c #61422A",
"J.	c #593621",
"K.	c #7E6A51",
"L.	c #624630",
"M.	c #615246",
"N.	c #5C3923",
"O.	c #645544",
"P.	c #62584A",
"Q.	c #63584A",
"R.	c #675E51",
"S.	c #675F52",
"T.	c #6C6255",
"U.	c #6C6356",
"V.	c #746D63",
"W.	c #57341D",
"X.	c #787B21",
"Y.	c #5A3822",
"Z.	c #807C72",
"`.	c #817D73",
" +	c #757165",
".+	c #706A5F",
"++	c #918D81",
"@+	c #918E82",
"#+	c #60412A",
"$+	c #8E8C80",
"%+	c #908D81",
"&+	c #8E8B7F",
"*+	c #8D8B80",
"=+	c #4F2913",
"-+	c #939185",
";+	c #615245",
">+	c #635542",
",+	c #655744",
"'+	c #655748",
")+	c #625849",
"!+	c #675E50",
"~+	c #675F51",
"{+	c #696053",
"]+	c #57331D",
"^+	c #7F8226",
"/+	c #6E685D",
"(+	c #6F695F",
"_+	c #70695E",
":+	c #6B6255",
"<+	c #878478",
"[+	c #6C6256",
"}+	c #696055",
"|+	c #5F4029",
"1+	c #684C37",
"2+	c #715D4A",
"3+	c #725D4A",
"4+	c #725C4A",
"5+	c #684D37",
"6+	c #615244",
"7+	c #635643",
"8+	c #665C51",
"9+	c #635749",
"0+	c #675D50",
"a+	c #665E51",
"b+	c #675F53",
"c+	c #5E3B26",
"d+	c #5E3A25",
"e+	c #736C63",
"f+	c #57321D",
"g+	c #656C17",
"h+	c #5C3B24",
"i+	c #6E685C",
"j+	c #878278",
"k+	c #5B3A22",
"l+	c #5D3C26",
"m+	c #827C6E",
"n+	c #827B6E",
"o+	c #61422B",
"p+	c #63533F",
"q+	c #655C4F",
"r+	c #665D51",
"s+	c #665D52",
"t+	c #62574A",
"u+	c #57331E",
"v+	c #837E6D",
"w+	c #847F6F",
"x+	c #5C3B26",
"y+	c #5D3C27",
"z+	c #593822",
"A+	c #5D3D25",
"B+	c #827E72",
"C+	c #817E72",
"D+	c #7B776B",
"E+	c #7A776A",
"F+	c #8C8A7D",
"G+	c #54321C",
"H+	c #5B3720",
"I+	c #868275",
"J+	c #868175",
"K+	c #827B6D",
"L+	c #827B6C",
"M+	c #605244",
"N+	c #665D50",
"O+	c #615749",
"P+	c #625749",
"Q+	c #58351F",
"R+	c #888375",
"S+	c #858172",
"T+	c #5E3D27",
"U+	c #5E3C27",
"V+	c #58331E",
"W+	c #705C46",
"X+	c #6B6358",
"Y+	c #817E71",
"Z+	c #79766A",
"`+	c #8B897E",
" @	c #54321B",
".@	c #939085",
"+@	c #605144",
"@@	c #5C3721",
"#@	c #5F5245",
"$@	c #58341F",
"%@	c #583621",
"&@	c #56331D",
"*@	c #54301B",
"=@	c #532F19",
"-@	c #837F6E",
";@	c #888476",
">@	c #898476",
",@	c #8D897C",
"'@	c #5E3E29",
")@	c #686156",
"!@	c #705D45",
"~@	c #5D3B24",
"{@	c #7C786B",
"]@	c #7A776B",
"^@	c #89877A",
"/@	c #65574A",
"(@	c #5C3822",
"_@	c #929084",
":@	c #5E5144",
"<@	c #5F5144",
"[@	c #645B4F",
"}@	c #55321B",
"|@	c #838172",
"1@	c #848171",
"2@	c #858171",
"3@	c #898477",
"4@	c #949288",
"5@	c #593721",
"6@	c #686155",
"7@	c #665D4F",
"8@	c #65584A",
"9@	c #5B3822",
"0@	c #58331D",
"a@	c #5E5044",
"b@	c #5E5245",
"c@	c #645B4E",
"d@	c #56311C",
"e@	c #8F8C80",
"f@	c #878375",
"g@	c #8A8577",
"h@	c #8D8A7D",
"i@	c #55301A",
"j@	c #685F54",
"k@	c #696255",
"l@	c #665C4D",
"m@	c #5D3C24",
"n@	c #817E70",
"o@	c #807D70",
"p@	c #66594C",
"q@	c #6C6459",
"r@	c #8A8679",
"s@	c #8B867A",
"t@	c #8B8679",
"u@	c #817C70",
"v@	c #5B3821",
"w@	c #57321B",
"x@	c #532E18",
"y@	c #695F52",
"z@	c #695F53",
"A@	c #6B6254",
"B@	c #6B6256",
"C@	c #6C6458",
"D@	c #949186",
"E@	c #64584A",
"F@	c #685C4D",
"G@	c #685D4D",
"H@	c #807562",
"I@	c #898779",
"J@	c #615346",
"K@	c #66584B",
"L@	c #8B877A",
"M@	c #8C877A",
"N@	c #5E3E27",
"O@	c #553019",
"P@	c #696052",
"Q@	c #6A6154",
"R@	c #6B6457",
"S@	c #6D6458",
"T@	c #6E675B",
"U@	c #6F685D",
"V@	c #949187",
"W@	c #97948A",
"X@	c #97958A",
"Y@	c #64584B",
"Z@	c #65594A",
"`@	c #56321A",
" #	c #5E3D24",
".#	c #817662",
"+#	c #827F71",
"@#	c #5F5244",
"##	c #645749",
"$#	c #6C6559",
"%#	c #8C887B",
"&#	c #8D887B",
"*#	c #5E3C26",
"=#	c #56331C",
"-#	c #55321C",
";#	c #6B6356",
">#	c #6C6357",
",#	c #6D6559",
"'#	c #6F685C",
")#	c #70695D",
"!#	c #716B5E",
"~#	c #7B7569",
"{#	c #65584B",
"]#	c #65594B",
"^#	c #512B14",
"/#	c #543018",
"(#	c #563119",
"_#	c #542F17",
":#	c #532E16",
"<#	c #837F71",
"[#	c #8B897B",
"}#	c #5E4F42",
"|#	c #625546",
"1#	c #706A5E",
"2#	c #949185",
"3#	c #979589",
"4#	c #6B5F52",
"5#	c #57351E",
"6#	c #56321B",
"7#	c #543019",
"8#	c #716A5D",
"9#	c #716A5E",
"0#	c #726B5F",
"a#	c #7C776C",
"b#	c #66584A",
"c#	c #532E17",
"d#	c #868476",
"e#	c #868475",
"f#	c #542F16",
"g#	c #563118",
"h#	c #858374",
"i#	c #5B4C3E",
"j#	c #5D4E41",
"k#	c #716A5F",
"l#	c #726354",
"m#	c #664C37",
"n#	c #837D70",
"o#	c #827D70",
"p#	c #61432D",
"q#	c #55311A",
"r#	c #726C60",
"s#	c #7F796E",
"t#	c #57331B",
"u#	c #644530",
"v#	c #664D37",
"w#	c #837F70",
"x#	c #837F6F",
"y#	c #868375",
"z#	c #858375",
"A#	c #59351D",
"B#	c #502C15",
"C#	c #583924",
"D#	c #817C72",
"E#	c #746556",
"F#	c #746656",
"G#	c #62412D",
"H#	c #898579",
"I#	c #837F72",
"J#	c #837E72",
"K#	c #61402A",
"L#	c #5D3A25",
"M#	c #664A35",
"N#	c #827E70",
"O#	c #8E8C7E",
"P#	c #605344",
"Q#	c #5A4C3E",
"R#	c #5A4B3E",
"S#	c #746655",
"T#	c #756656",
"U#	c #898578",
"V#	c #62422B",
"W#	c #684E39",
"X#	c #694F3B",
"Y#	c #858274",
"Z#	c #8E8C7F",
"`#	c #615344",
" $	c #5A4B3D",
".$	c #5C3C27",
"+$	c #6E665A",
"@$	c #7F7B6F",
"#$	c #57351F",
"$$	c #817B70",
"%$	c #716352",
"&$	c #5F3C23",
"*$	c #928E82",
"=$	c #8D897B",
"-$	c #8B877B",
";$	c #8A877B",
">$	c #6A523D",
",$	c #898678",
"'$	c #878274",
")$	c #5E3A24",
"!$	c #5E3D26",
"~$	c #7A6E60",
"{$	c #7A6D5E",
"]$	c #62442C",
"^$	c #8B897A",
"/$	c #888678",
"($	c #8C897B",
"_$	c #8A887A",
":$	c #605343",
"<$	c #522F18",
"[$	c #5B3D28",
"}$	c #6D6459",
"|$	c #7F7C6F",
"1$	c #5A3B25",
"2$	c #7D776C",
"3$	c #66594A",
"4$	c #5F3C22",
"5$	c #766E5F",
"6$	c #776E60",
"7$	c #979488",
"8$	c #8C897C",
"9$	c #8B887C",
"0$	c #684E38",
"a$	c #8A8779",
"b$	c #868274",
"c$	c #847F71",
"d$	c #7B7061",
"e$	c #7B6F61",
"f$	c #796D5E",
"g$	c #664A32",
"h$	c #888677",
"i$	c #8B887B",
"j$	c #625444",
"k$	c #5F5343",
"l$	c #533019",
"m$	c #4F2C15",
"n$	c #5B3D2A",
"o$	c #736C60",
"p$	c #858175",
"q$	c #5B3B25",
"r$	c #685A4B",
"s$	c #5C3C26",
"t$	c #766E60",
"u$	c #776F60",
"v$	c #777062",
"w$	c #684D39",
"x$	c #8A877A",
"y$	c #878374",
"z$	c #898576",
"A$	c #8A8576",
"B$	c #888374",
"C$	c #694F3A",
"D$	c #8B8979",
"E$	c #918F81",
"F$	c #8F8C7F",
"G$	c #695C4C",
"H$	c #625344",
"I$	c #5B5042",
"J$	c #594B3D",
"K$	c #5A3C29",
"L$	c #726A5F",
"M$	c #746D61",
"N$	c #858174",
"O$	c #5C3D29",
"P$	c #5B3C26",
"Q$	c #787061",
"R$	c #777061",
"S$	c #787163",
"T$	c #959387",
"U$	c #6C5440",
"V$	c #888475",
"W$	c #888373",
"X$	c #969387",
"Y$	c #969486",
"Z$	c #6C6050",
"`$	c #695B4C",
" %	c #615445",
".%	c #6A5E4F",
"+%	c #522E17",
"@%	c #5A5042",
"#%	c #5B3C28",
"$%	c #756E62",
"%%	c #888478",
"&%	c #5B3B26",
"*%	c #787162",
"=%	c #787062",
"-%	c #654732",
";%	c #9B998D",
">%	c #9A968B",
",%	c #98958A",
"'%	c #969287",
")%	c #928F83",
"!%	c #949184",
"~%	c #979587",
"{%	c #979588",
"]%	c #625545",
"^%	c #512C15",
"/%	c #5A3B28",
"(%	c #6C6358",
"_%	c #726B60",
":%	c #756F63",
"<%	c #8C887C",
"[%	c #776F5F",
"}%	c #777060",
"|%	c #777163",
"1%	c #62452F",
"2%	c #807B72",
"3%	c #70685D",
"4%	c #716C5F",
"5%	c #716B5F",
"6%	c #726D60",
"7%	c #706B5D",
"8%	c #767166",
"9%	c #68503B",
"0%	c #776E61",
"a%	c #6B5F50",
"b%	c #645748",
"c%	c #635747",
"d%	c #625647",
"e%	c #4F2912",
"f%	c #5A4F42",
"g%	c #6F665B",
"h%	c #746D62",
"i%	c #767064",
"j%	c #776F61",
"k%	c #777063",
"l%	c #776F62",
"m%	c #60422D",
"n%	c #7A756B",
"o%	c #6F675C",
"p%	c #706B5F",
"q%	c #706B5E",
"r%	c #6F6556",
"s%	c #655849",
"t%	c #645647",
"u%	c #635647",
"v%	c #625748",
"w%	c #594A3D",
"x%	c #583823",
"y%	c #6E655A",
"z%	c #746E63",
"A%	c #756F64",
"B%	c #757065",
"C%	c #645545",
"D%	c #624735",
"E%	c #756E61",
"F%	c #583721",
"G%	c #767168",
"H%	c #6F6A5E",
"I%	c #6E675C",
"J%	c #6E665C",
"K%	c #6A6358",
"L%	c #6A6357",
"M%	c #696357",
"N%	c #6E695D",
"O%	c #6C6153",
"P%	c #685C4E",
"Q%	c #4E2912",
"R%	c #554432",
"S%	c #512E17",
"T%	c #583722",
"U%	c #736D61",
"V%	c #747064",
"W%	c #757064",
"X%	c #5B3A25",
"Y%	c #635545",
"Z%	c #635544",
"`%	c #635444",
" &	c #5A3D28",
".&	c #756D61",
"+&	c #767068",
"@&	c #6D665C",
"#&	c #6D665B",
"$&	c #6A6359",
"%&	c #573720",
"&&	c #675C4D",
"*&	c #574637",
"=&	c #564433",
"-&	c #512D17",
";&	c #56341F",
">&	c #6D655A",
",&	c #736C61",
"'&	c #746F64",
")&	c #5B3A26",
"!&	c #55311C",
"~&	c #54321D",
"{&	c #502A13",
"]&	c #757067",
"^&	c #675C4E",
"/&	c #686257",
"(&	c #5C5041",
"_&	c #5C5040",
":&	c #4E2811",
"<&	c #584A3C",
"[&	c #726C61",
"}&	c #736F64",
"|&	c #5A3A25",
"1&	c #6E675D",
"2&	c #6E685E",
"3&	c #615343",
"4&	c #55321D",
"5&	c #55311B",
"6&	c #665B4E",
"7&	c #665B4D",
"8&	c #54311D",
"9&	c #60574B",
"0&	c #5F574C",
"a&	c #4D2811",
"b&	c #544332",
"c&	c #4F2B14",
"d&	c #512A13",
"e&	c #726C62",
"f&	c #736E64",
"g&	c #593723",
"h&	c #6B6458",
"i&	c #605243",
"j&	c #55331F",
"k&	c #54311C",
"l&	c #614D39",
"m&	c #614F3B",
"n&	c #614F3C",
"o&	c #60574C",
"p&	c #4D2812",
"q&	c #544333",
"r&	c #584B3D",
"s&	c #4E2B14",
"t&	c #716D63",
"u&	c #55331E",
"v&	c #6C665A",
"w&	c #6B6459",
"x&	c #53301B",
"y&	c #614F3D",
"z&	c #614F3E",
"A&	c #605141",
"B&	c #605242",
"C&	c #615A52",
"D&	c #615A50",
"E&	c #615A51",
"F&	c #5F5649",
"G&	c #554637",
"H&	c #574A3C",
"I&	c #4F2A14",
"J&	c #BD9842",
"K&	c #615243",
"L&	c #696258",
"M&	c #6C665C",
"N&	c #645A4D",
"O&	c #5D4837",
"P&	c #69625B",
"Q&	c #655E57",
"R&	c #655E56",
"S&	c #645D55",
"T&	c #4E2913",
"U&	c #4E2A13",
"V&	c #636917",
"W&	c #C6A740",
"X&	c #685F53",
"Y&	c #5D4938",
"Z&	c #655F57",
"`&	c #655E55",
" *	c #635D55",
".*	c #61564B",
"+*	c #5D5041",
"@*	c #4E2812",
"#*	c #A2783C",
"$*	c #63594D",
"%*	c #53321D",
"&*	c #605951",
"**	c #4E2813",
"=*	c #53321E",
"-*	c #52301C",
";*	c #4F2914",
">*	c #4F2A15",
",*	c #502A15",
". . . . . + @ . . . . . . . . . . . . . . . . . . . . . . . . . . . . . . . . . . . . . . . . . ",
". . . . # $ % . . . . . . . . . . . . . . . . . . . . . . . . . . . . . . . . . . . . . . . . . ",
"& * = - ; > > , ' - ) . . . . . . . . . . . . . . . . . . . . . . . . . . . . . . . . . . . . . ",
"! ~ { ] ] ] ] ] ^ / ( _ . . . . . . . . . . . . . . . . . . . . . . . . . . . . . . . . . . . . ",
"! : < [ ] ] } | 1 2 3 4 5 6 7 . . . . . . . . . . . . . . . . . . . . . . . . . . . . . . . . . ",
"! 8 9 0 a b c d ] e f g h i h j . . . . . . . . . . . . . . . . . . . . . . . . . . . . . . . . ",
"g k ~ e l ] ] l e ~ m n n n h h o . . . . . . . . . . . . . . . . . . . . . . . . . . . . . . . ",
". . . . p q r s t u u n v v v w x y z A B B C D E . . . . . . . . . . . F G H H I J . . . . . . ",
". . . . K L M t t t t v v N N O P Q R B B B C S T U . . . . . . . . . V W H H H H X Y . . . . . ",
". . . . Y Z ` t t t t  ...+.+.O @.Q R B B #.$.%.T &.. . . . . . . . . *.=.-.-.H H -.-.J . . . . ",
". . . ;.>.,.'.t ).!. ...~.+.+.+.{.Q ].^.B $.$.%./.(.. . . . . . . . . _.:.-.-.H -.-.-.<.. . . . ",
". . U [.}.|.1.t 2.3.4.5.5.5.5.+.6.Q 7.C C C 8././.9.. . . . . . . . . _.0.a.-.-.-.-.-.<.b.. . . ",
". . E c.V |.d.3.3.4.e.f.5.5.5.+.g.h.a.w i.i.j.j.k.{.. . . . . . . . . l.0.m.n.-.-.-.<.<.<.;.. . ",
". o.3.3.p.q.r.3.4.f.f.f.f.s.s.t.u.v.w.x.y.z.A.k.k.B.. . . . . . . . . C.D.E.F.u.G.-.H.<.<.<.I.. ",
". 3.3.2.J.K.L.3.M.f.f.f.x N.O.P.Q.R.S.x.S.S.T.U.V.W.. . X.X.. . . Y.Z.`.C. +.+.+.+..++@+s.s.s.#+",
". $+%+&+*+=+=+-+;+M.f.Y.>+,+'+)+)+!+!+~+~+S.{+A.V.]+. ^+X.. . . . Y./+(+:. +_+_+:+<+[+s.s.s.}+|+",
". 1+2+3+4+5+5+E 6+;+N.>+7+w.8+)+)+9+0+0+a+b+c+d+e+f+X.X.g+. . . . Y./+/+(+h+i+s.:+j+C.k+l.j l+|+",
"x m+m+m+n+n+m+o+;+U p+q+w.r+s+)+9+9+t+a+a+u+v+w+x+l+y+X.g+. . . . z+(+/+/+h+s.s.5.A+B+C+D+E+F+G+",
"H+I+I+J+m+K+L+L+M+x p+R.w.r+N+O+P+t+P+a+Q+v+v+w+R+R+S+T+U+. . . . V+(+(+/+W+h+X+h+C+Y+Y+D+Z+`+ @",
"x .@I+J+J+J+J+L++@@@#@R.R.r+r+$@%@&@*@=@-@-@w+w+R+;@>@,@,@'@. . . $@(+(+)@)@!@h+~@Y+{@{@]@^@/@ @",
"(@_@I+J+J+J+J+J+H+:@<@R.w.[@}@. . . =@|@1@2@R+R+>@3@,@,@,@4@. . . . 5@(+)@6@7@!@~@{@D+{@E+!.8@ @",
"9@_@I+I+J+J+J+J+0@a@<@b@c@d@. . . =@e@e@1@f@R+g@g@,@,@,@h@4@. . . . . i@j@k@l@l@m@{@{@n@o@3.p@ @",
"x q@n.r@r@s@t@J+u@v@:@w@. . . . . x@y@z@A@B@C@4.D@h@h@h@4@E@. . . . . . . F@G@z H@H@n@n@I@J@K@ @",
"C.q@q@-+L@L@M@M@X J+N@. . . . . . O@P@Q@s.R@S@T@U@V@W@X@Y@Z@. . . . . . . `@G@ #.#+#+#n@2.@### @",
"v@q@$#D@%#&#&#&#X T *#. . . . . . . =#-#;#>#,#'#)#!#~#{#]#^#. . . . . . . /#(#_#:#<#+#n@[#}#|# @",
". q@1#1#2#,@,@,@3#4#A+y+. . . . . . . . 5#6#7#8#9#0#a#8@b#c#. . . . . . . d#d#e#e#f#g#h#i#j#;+ @",
". _+1#1#k#3#3#3#l#m#n#o#p#. . . . . . . . . . q#i@r#s#p@t#. . . . . . u#v#w#x#e#e#y#z#A#i#j#B#. ",
". C#1#k#k#D#E#F#G#H#I#J#J#K K#. . . . . . . . . . 7 L#7 . . . . . . M#N#N#x#x#e#y#y#O#P#Q#R#B#. ",
". C#k#k#k#D#S#T#].2.2.H#I#J#U#V#. . . . . . . . . . . . . . . . W#X#Y#Y#Y#e#y#y#y#Z#`#P#R# $B#. ",
".$+$@$#$0#$$%$&$*$@+=$&#^.^.^.-$;$>$,$U#'$)$N.N.~@E !$F ~${$]$[#^$^$^$/$e#y#($_$`#P#P#:$ $<$. . ",
"[$C@}$|$1$2$3$4$5$6$7$7$^.,@,@8$9$0$a$'$'$'$b$<#c$c$d$e${$f$g$^$^$^$^$h$e#i$j$`#P#P#P#k$l$ $m$. ",
"n$C@}$o$p$q$r$s$t$6$u$v$7$,@,@8$w$L@x$y$'$'$c$<#c$c$c$c$z$A$B$C$^$^$D$E$F$G$H$`#P#P#:$@#I$J$m$. ",
"K$C@L$o$M$N$O$P$6$u$Q$R$S$3#T$8$U$L@a$V$'$c$<#c$c$g@g@g@A$B$W$W$m#X$Y$Z$Z$`$ % %P#.%.%+%@%J$m$. ",
"#%C@L$o$M$$%%%&%u$R$R$*%=%=%v$-%;%>%,%'%)%c$<#<#g@g@g@z$z$!%~%{%v#v$Z$Z$Z$F@|#]%.%.%^%I$@%J$m$. ",
"/%(%L$_%M$:%<%h@[%}%v$=%S$|%v$1%2%3%4%5%5%a.@+i.i.i.%+F$F$6%7%8%9%0%Z$a%a%b%c%d%.%e%I$@%f%J$m$. ",
". (%+$g%h%$%i%F+1$j%v$k%k%k%l%m%n%o%o%5%5%p%p%p%p%5%5%q%q%q%7%8%X#r%a%a%s%t%u%v%e%J$@%@%J$w%m$. ",
". x%y%y%h%z%A%B%_.C%C%D%E%E%E%F%G%H%I%J%.+p%p%p%p%q%q%1#K%L%M%N%L.O%P%##b%Q%Q%R%J$J$J$f%S%. . . ",
". . T%y%y%U%V%W%X%Y%Z%`% &E%.&&@+&@&@&@&#&@&I%H%1#1#H%H%$&M%M%N%%&O%&&e%e%*&=&=&J$J$w%f%-&. . . ",
". . . ;&>&,&'&'&)&`%H$N%j$!&~&{&]&#&#&#&#&#&#&#&H%H%^&^&K%M%/&/+e%e%e%(&_&:&=&J$J$<&@%@%. . . . ",
". . . . ^%[&}&}&|&j$1&2&/+`#3&3&{&{&4&5&#&#&#&#&#&^&6&7&7&8&+%e%9&0&0&(&_&a&b&J$<&<&@%c&. . . . ",
". . . . ^+d&e&f&g&`#@&/+/+/+h&i&i&i&i&i&j&k&k&k&k&k&~&~&~&l&m&n&9&o&0&(&(&p&q&J$<&r&s&. . . . . ",
". . . . . X.{&t&u&3&v&/+1&q@w&w&b+s+b+i&i&i&x&y&y&y&z&A&B&C&D&E&9&9&F&(&(&p&G&H&I&c&. . . . . . ",
". . . . . g+J&{&{&K&L&M&$&w&w&b+b+b+b+b+N&N&O&P&P&Q&R&S&C&C&C&E&0&F&F&(&(&p&T&U&. . . . . . . . ",
". . . . . . V&J&J&V&. W&=+=+=+X&b+b+b+N&N&N&Y&P&P&P&Z&`& *C&C&E&.*F&F&+*@*. . . . . . . . . . . ",
". . . . W&W&. V&V&. . #*W&. . =+=+=+N&N&N&$*%*P&P&P&Z&Q&S&C&C&&*****p&@*. . . . . . . . . . . . ",
". . . W&#*#*W&. . . . V&V&. . . . . =+=*-*-*@*P&P&P&Z&Q&I&I&I&;*. . . . . . . . . . . . . . . . ",
". . . V&W&W&V&. . . . . . . . . . . . g+X.X.. T&I&I&>*,*. . . . . . . . . . . . . . . . . . . . ",
". . . . V&V&. . . . . . . . . . . . . . g+X.X.X.g+. . . . . . . . . . . . . . . . . . . . . . . "};
