/* XPM */
static char * exit_c_xpm[] = {
"48 48 844 2",
"  	c None",
". 	c #72751B",
"+ 	c #6F4F36",
"@ 	c #72533A",
"# 	c #623F25",
"$ 	c #856E56",
"% 	c #70523B",
"& 	c #948166",
"* 	c #958163",
"= 	c #95805F",
"- 	c #958060",
"; 	c #958161",
"> 	c #705239",
", 	c #866D4F",
"' 	c #968162",
") 	c #624027",
"! 	c #887052",
"~ 	c #897153",
"{ 	c #866C4E",
"] 	c #876D4E",
"^ 	c #8A7354",
"/ 	c #8A7254",
"( 	c #9A8667",
"_ 	c #684930",
": 	c #856C4D",
"< 	c #66452B",
"[ 	c #644329",
"} 	c #634127",
"| 	c #624127",
"1 	c #624024",
"2 	c #614026",
"3 	c #897152",
"4 	c #988467",
"5 	c #5D3B23",
"6 	c #5A3721",
"7 	c #5A3620",
"8 	c #856B4D",
"9 	c #6E5034",
"0 	c #6E4F34",
"a 	c #6D4E34",
"b 	c #6E4F33",
"c 	c #907A5D",
"d 	c #6D4E33",
"e 	c #866C4D",
"f 	c #856B4C",
"g 	c #887051",
"h 	c #7B7464",
"i 	c #7B7364",
"j 	c #5B3923",
"k 	c #664E3A",
"l 	c #654C39",
"m 	c #654C38",
"n 	c #634937",
"o 	c #624935",
"p 	c #887152",
"q 	c #866D4E",
"r 	c #624026",
"s 	c #7D796A",
"t 	c #59361F",
"u 	c #654D39",
"v 	c #68503D",
"w 	c #68513F",
"x 	c #878272",
"y 	c #86806F",
"z 	c #5E5346",
"A 	c #634835",
"B 	c #614532",
"C 	c #5A361E",
"D 	c #71563D",
"E 	c #63462F",
"F 	c #847F70",
"G 	c #848071",
"H 	c #7E796A",
"I 	c #838071",
"J 	c #908E83",
"K 	c #5C3922",
"L 	c #5F3D25",
"M 	c #5E3D25",
"N 	c #654C3A",
"O 	c #777060",
"P 	c #776F5F",
"Q 	c #786F5F",
"R 	c #878171",
"S 	c #61584B",
"T 	c #5F442F",
"U 	c #5F3E27",
"V 	c #614029",
"W 	c #7F7B6E",
"X 	c #7F7C6E",
"Y 	c #64432D",
"Z 	c #603F28",
"` 	c #846F55",
" .	c #6B5039",
"..	c #929085",
"+.	c #736B5C",
"@.	c #5B3921",
"#.	c #6F6553",
"$.	c #644B37",
"%.	c #7A7261",
"&.	c #797261",
"*.	c #787161",
"=.	c #8F8B7E",
"-.	c #888372",
";.	c #888272",
">.	c #888273",
",.	c #62594C",
"'.	c #62584B",
").	c #60442F",
"!.	c #5D3B26",
"~.	c #848075",
"{.	c #817D70",
"].	c #64442E",
"^.	c #836E55",
"/.	c #6A4F39",
"(.	c #878579",
"_.	c #969489",
":.	c #736A5C",
"<.	c #5A3820",
"[.	c #624733",
"}.	c #7C7565",
"|.	c #7A7364",
"1.	c #8F8B7F",
"2.	c #8B8678",
"3.	c #888373",
"4.	c #888374",
"5.	c #62594B",
"6.	c #5C3F2B",
"7.	c #5C3A24",
"8.	c #8C887E",
"9.	c #848175",
"0.	c #62412B",
"a.	c #61402B",
"b.	c #836D54",
"c.	c #694E38",
"d.	c #878578",
"e.	c #888579",
"f.	c #6A5F53",
"g.	c #604530",
"h.	c #7D7767",
"i.	c #7F7867",
"j.	c #7D7766",
"k.	c #908C7F",
"l.	c #8C8778",
"m.	c #898473",
"n.	c #898373",
"o.	c #898374",
"p.	c #898474",
"q.	c #534A3E",
"r.	c #593E29",
"s.	c #5B3A24",
"t.	c #787368",
"u.	c #878476",
"v.	c #5E3B24",
"w.	c #7D7665",
"x.	c #5F3E28",
"y.	c #826C53",
"z.	c #694E37",
"A.	c #898679",
"B.	c #888679",
"C.	c #969388",
"D.	c #6B6155",
"E.	c #5F422D",
"F.	c #7D7666",
"G.	c #7F7868",
"H.	c #8A8474",
"I.	c #898475",
"J.	c #544B3F",
"K.	c #583B2A",
"L.	c #787468",
"M.	c #918F83",
"N.	c #64422C",
"O.	c #5E3C25",
"P.	c #7C7263",
"Q.	c #674C36",
"R.	c #655A4D",
"S.	c #665B4F",
"T.	c #604330",
"U.	c #736650",
"V.	c #726650",
"W.	c #8C8779",
"X.	c #8D8779",
"Y.	c #8A8574",
"Z.	c #8A8575",
"`.	c #8B8575",
" +	c #8E8A7E",
".+	c #544A3E",
"++	c #573D2B",
"@+	c #5B3A23",
"#+	c #777267",
"$+	c #918E83",
"%+	c #5C3821",
"&+	c #5D3B25",
"*+	c #816C52",
"=+	c #644831",
"-+	c #6A6155",
";+	c #604632",
">+	c #74664E",
",+	c #746650",
"'+	c #908C80",
")+	c #8D8879",
"!+	c #8B8676",
"~+	c #8A8576",
"{+	c #8A8475",
"]+	c #8C877A",
"^+	c #8E8A7D",
"/+	c #543C2B",
"(+	c #787467",
"_+	c #777266",
":+	c #757164",
"<+	c #928F84",
"[+	c #858276",
"}+	c #878477",
"|+	c #61422A",
"1+	c #593621",
"2+	c #7E6A51",
"3+	c #624630",
"4+	c #615246",
"5+	c #5C3923",
"6+	c #5E402D",
"7+	c #74654E",
"8+	c #8D887A",
"9+	c #533C2B",
"0+	c #5B3922",
"a+	c #757165",
"b+	c #706A5F",
"c+	c #918D81",
"d+	c #918E82",
"e+	c #60412A",
"f+	c #8E8C80",
"g+	c #908D81",
"h+	c #8E8B7F",
"i+	c #8D8B80",
"j+	c #4F2913",
"k+	c #939185",
"l+	c #615245",
"m+	c #5A3822",
"n+	c #635542",
"o+	c #655744",
"p+	c #5E3F2B",
"q+	c #73654F",
"r+	c #8E8879",
"s+	c #8E897B",
"t+	c #8E897C",
"u+	c #533D2D",
"v+	c #70695E",
"w+	c #6B6255",
"x+	c #878478",
"y+	c #6C6256",
"z+	c #696055",
"A+	c #5F4029",
"B+	c #684C37",
"C+	c #715D4A",
"D+	c #725D4A",
"E+	c #725C4A",
"F+	c #684D37",
"G+	c #615244",
"H+	c #635643",
"I+	c #5D3F2A",
"J+	c #73644E",
"K+	c #908B7F",
"L+	c #8D8778",
"M+	c #908B7C",
"N+	c #8F8B7C",
"O+	c #908B7D",
"P+	c #908A7D",
"Q+	c #8F8B7D",
"R+	c #8F8A7D",
"S+	c #8C8679",
"T+	c #8C877B",
"U+	c #534A3D",
"V+	c #513F2E",
"W+	c #6E685C",
"X+	c #878278",
"Y+	c #5B3A22",
"Z+	c #5D3C26",
"`+	c #827C6E",
" @	c #827B6E",
".@	c #61422B",
"+@	c #63533F",
"@@	c #655C4F",
"#@	c #675D51",
"$@	c #5E412C",
"%@	c #847F6E",
"&@	c #8E887A",
"*@	c #918C7E",
"=@	c #908C7E",
"-@	c #908B7E",
";@	c #8B8779",
">@	c #929086",
",@	c #665D4E",
"'@	c #52493D",
")@	c #523E2D",
"!@	c #5D3D25",
"~@	c #827E72",
"{@	c #817E72",
"]@	c #7B776B",
"^@	c #7A776A",
"/@	c #8C8A7D",
"(@	c #54321C",
"_@	c #5B3720",
":@	c #868275",
"<@	c #868175",
"[@	c #827B6D",
"}@	c #827B6C",
"|@	c #605244",
"1@	c #675E51",
"2@	c #5D412D",
"3@	c #73644D",
"4@	c #837E6D",
"5@	c #96948B",
"6@	c #928D80",
"7@	c #918D80",
"8@	c #918C7F",
"9@	c #939087",
"0@	c #918F87",
"a@	c #655C4E",
"b@	c #645B4C",
"c@	c #625A4B",
"d@	c #523F2E",
"e@	c #5C3B24",
"f@	c #6B6358",
"g@	c #817E71",
"h@	c #79766A",
"i@	c #8B897E",
"j@	c #54321B",
"k@	c #939085",
"l@	c #605144",
"m@	c #5C3721",
"n@	c #5F5245",
"o@	c #5E432F",
"p@	c #827D6D",
"q@	c #847E6E",
"r@	c #97948B",
"s@	c #97948C",
"t@	c #95928A",
"u@	c #939187",
"v@	c #787360",
"w@	c #76715E",
"x@	c #655D4D",
"y@	c #645B4D",
"z@	c #635A4A",
"A@	c #61594A",
"B@	c #605749",
"C@	c #523F2D",
"D@	c #705D45",
"E@	c #5D3B24",
"F@	c #7C786B",
"G@	c #7A776B",
"H@	c #89877A",
"I@	c #65574A",
"J@	c #5C3822",
"K@	c #929084",
"L@	c #5E5144",
"M@	c #5F5144",
"N@	c #5C402C",
"O@	c #827D6C",
"P@	c #857F6E",
"Q@	c #85806F",
"R@	c #7A7562",
"S@	c #77725F",
"T@	c #655C4D",
"U@	c #62594A",
"V@	c #615849",
"W@	c #605748",
"X@	c #5F5646",
"Y@	c #513C2B",
"Z@	c #665D4F",
"`@	c #65584A",
" #	c #5B3822",
".#	c #58331D",
"+#	c #5E5044",
"@#	c #5C402B",
"##	c #837D6D",
"$#	c #837E6E",
"%#	c #7C7664",
"&#	c #7A7461",
"*#	c #78725F",
"=#	c #76705D",
"-#	c #645C4C",
";#	c #615848",
">#	c #5F5647",
",#	c #5E5547",
"'#	c #503B28",
")#	c #665C4D",
"!#	c #5D3C24",
"~#	c #817E70",
"{#	c #807D70",
"]#	c #66594C",
"^#	c #6C6459",
"/#	c #8A8679",
"(#	c #8B867A",
"_#	c #8B8679",
":#	c #817C70",
"<#	c #5B3821",
"[#	c #5A3C28",
"}#	c #817C6C",
"|#	c #96938B",
"1#	c #7E7967",
"2#	c #797461",
"3#	c #78715E",
"4#	c #635A4C",
"5#	c #615748",
"6#	c #605647",
"7#	c #5E5447",
"8#	c #503826",
"9#	c #685D4D",
"0#	c #807562",
"a#	c #898779",
"b#	c #615346",
"c#	c #66584B",
"d#	c #8B877A",
"e#	c #5E3E27",
"f#	c #593A25",
"g#	c #6C6555",
"h#	c #7E7867",
"i#	c #7D7866",
"j#	c #5F5547",
"k#	c #5E5446",
"l#	c #5D5345",
"m#	c #503524",
"n#	c #5E3D24",
"o#	c #817662",
"p#	c #827F71",
"q#	c #5F5244",
"r#	c #645749",
"s#	c #6C6559",
"t#	c #949186",
"u#	c #8C887B",
"v#	c #8D887B",
"w#	c #979489",
"x#	c #5E3C26",
"y#	c #573825",
"z#	c #6B6454",
"A#	c #6C6554",
"B#	c #6D6554",
"C#	c #827C6C",
"D#	c #7D7867",
"E#	c #6A6256",
"F#	c #6A6156",
"G#	c #625A4A",
"H#	c #605648",
"I#	c #5E5546",
"J#	c #5C5346",
"K#	c #4E3420",
"L#	c #543018",
"M#	c #563119",
"N#	c #542F17",
"O#	c #532E16",
"P#	c #837F71",
"Q#	c #8B897B",
"R#	c #5E4F42",
"S#	c #625546",
"T#	c #706A5E",
"U#	c #949185",
"V#	c #8D897C",
"W#	c #979589",
"X#	c #6B5F52",
"Y#	c #5D3C27",
"Z#	c #563823",
"`#	c #6D6555",
" $	c #6E6756",
".$	c #6A6258",
"+$	c #696155",
"@$	c #605747",
"#$	c #5C5345",
"$$	c #4E311C",
"%$	c #868476",
"&$	c #868475",
"*$	c #542F16",
"=$	c #563118",
"-$	c #858374",
";$	c #5B4C3E",
">$	c #5D4E41",
",$	c #716A5F",
"'$	c #726354",
")$	c #664C37",
"!$	c #837D70",
"~$	c #827D70",
"{$	c #543824",
"]$	c #6A6352",
"^$	c #6A6353",
"/$	c #6B6353",
"($	c #6C6454",
"_$	c #6D6656",
":$	c #7C7766",
"<$	c #696156",
"[$	c #665D52",
"}$	c #665D51",
"|$	c #5C5444",
"1$	c #4F301B",
"2$	c #644530",
"3$	c #664D37",
"4$	c #837F70",
"5$	c #837F6F",
"6$	c #868375",
"7$	c #858375",
"8$	c #59351D",
"9$	c #502C15",
"0$	c #583924",
"a$	c #817C72",
"b$	c #746556",
"c$	c #746656",
"d$	c #62412D",
"e$	c #898579",
"f$	c #837F72",
"g$	c #837E72",
"h$	c #553724",
"i$	c #6A6252",
"j$	c #686055",
"k$	c #655B4E",
"l$	c #645A4E",
"m$	c #5D5346",
"n$	c #4D2F1B",
"o$	c #664A35",
"p$	c #827E70",
"q$	c #8E8C7E",
"r$	c #605344",
"s$	c #5A4C3E",
"t$	c #5A4B3E",
"u$	c #746655",
"v$	c #756656",
"w$	c #888578",
"x$	c #533723",
"y$	c #696150",
"z$	c #696252",
"A$	c #6C6453",
"B$	c #716959",
"C$	c #726A59",
"D$	c #726B5A",
"E$	c #716A59",
"F$	c #706858",
"G$	c #4E311E",
"H$	c #4F2F1B",
"I$	c #694F3B",
"J$	c #858274",
"K$	c #8E8C7F",
"L$	c #615344",
"M$	c #5A4B3D",
"N$	c #5C3C27",
"O$	c #6E665A",
"P$	c #7F7B6F",
"Q$	c #57351F",
"R$	c #726B5F",
"S$	c #817B70",
"T$	c #716352",
"U$	c #5F3C23",
"V$	c #928E82",
"W$	c #8D897B",
"X$	c #8A8678",
"Y$	c #6A6151",
"Z$	c #696151",
"`$	c #6F6858",
" %	c #6F6757",
".%	c #6E6757",
"+%	c #655B4F",
"@%	c #50321E",
"#%	c #4F331E",
"$%	c #8B897A",
"%%	c #888678",
"&%	c #8C897B",
"*%	c #8A887A",
"=%	c #605343",
"-%	c #522F18",
";%	c #5B3D28",
">%	c #6C6458",
",%	c #6D6459",
"'%	c #7F7C6F",
")%	c #5A3B25",
"!%	c #7D776C",
"~%	c #66594A",
"{%	c #5F3C22",
"]%	c #766E5F",
"^%	c #776E60",
"/%	c #979488",
"(%	c #543523",
"_%	c #543522",
":%	c #523621",
"<%	c #53331E",
"[%	c #51331E",
"}%	c #6E6656",
"|%	c #6E6555",
"1%	c #6D6454",
"2%	c #4F311C",
"3%	c #796D5E",
"4%	c #664A32",
"5%	c #888677",
"6%	c #8B887B",
"7%	c #625444",
"8%	c #5F5343",
"9%	c #533019",
"0%	c #4F2C15",
"a%	c #5B3D2A",
"b%	c #736C60",
"c%	c #858175",
"d%	c #5B3B25",
"e%	c #685A4B",
"f%	c #5C3C26",
"g%	c #766E60",
"h%	c #776F60",
"i%	c #777062",
"j%	c #8C897C",
"k%	c #684D39",
"l%	c #8A877A",
"m%	c #878374",
"n%	c #50311C",
"o%	c #502F1A",
"p%	c #50301A",
"q%	c #502F1B",
"r%	c #50301B",
"s%	c #50301C",
"t%	c #847F71",
"u%	c #898576",
"v%	c #694F3A",
"w%	c #8B8979",
"x%	c #918F81",
"y%	c #8F8C7F",
"z%	c #695C4C",
"A%	c #625344",
"B%	c #5B5042",
"C%	c #594B3D",
"D%	c #5A3C29",
"E%	c #726A5F",
"F%	c #746D61",
"G%	c #858174",
"H%	c #5C3D29",
"I%	c #5B3C26",
"J%	c #787061",
"K%	c #777061",
"L%	c #787163",
"M%	c #959387",
"N%	c #6C5440",
"O%	c #8A8779",
"P%	c #888475",
"Q%	c #878274",
"R%	c #8A8577",
"S%	c #969387",
"T%	c #969486",
"U%	c #6C6050",
"V%	c #695B4C",
"W%	c #615445",
"X%	c #6A5E4F",
"Y%	c #522E17",
"Z%	c #5A5042",
"`%	c #5B3C28",
" &	c #756E62",
".&	c #888478",
"+&	c #5B3B26",
"@&	c #787162",
"#&	c #787062",
"$&	c #654732",
"%&	c #9B998D",
"&&	c #9A968B",
"*&	c #98958A",
"=&	c #969287",
"-&	c #928F83",
";&	c #949184",
">&	c #979587",
",&	c #979588",
"'&	c #685C4D",
")&	c #625545",
"!&	c #512C15",
"~&	c #5A3B28",
"{&	c #6C6358",
"]&	c #726B60",
"^&	c #756F63",
"/&	c #8C887C",
"(&	c #8D8A7D",
"_&	c #777163",
":&	c #62452F",
"<&	c #807B72",
"[&	c #70685D",
"}&	c #716C5F",
"|&	c #716B5F",
"1&	c #908E82",
"2&	c #726D60",
"3&	c #706B5D",
"4&	c #767166",
"5&	c #68503B",
"6&	c #776E61",
"7&	c #6B5F50",
"8&	c #645748",
"9&	c #635747",
"0&	c #625647",
"a&	c #4F2912",
"b&	c #5A4F42",
"c&	c #6F665B",
"d&	c #746D62",
"e&	c #767064",
"f&	c #776F61",
"g&	c #777063",
"h&	c #776F62",
"i&	c #60422D",
"j&	c #7A756B",
"k&	c #6F675C",
"l&	c #706B5F",
"m&	c #706B5E",
"n&	c #6F6556",
"o&	c #655849",
"p&	c #645647",
"q&	c #635647",
"r&	c #625748",
"s&	c #594A3D",
"t&	c #583823",
"u&	c #6E655A",
"v&	c #746E63",
"w&	c #756F64",
"x&	c #757065",
"y&	c #645545",
"z&	c #624735",
"A&	c #756E61",
"B&	c #583721",
"C&	c #767168",
"D&	c #6F6A5E",
"E&	c #6E675C",
"F&	c #6E665C",
"G&	c #6A6358",
"H&	c #6A6357",
"I&	c #696357",
"J&	c #6E695D",
"K&	c #6C6153",
"L&	c #685C4E",
"M&	c #4E2912",
"N&	c #554432",
"O&	c #512E17",
"P&	c #583722",
"Q&	c #736D61",
"R&	c #747064",
"S&	c #757064",
"T&	c #5B3A25",
"U&	c #635545",
"V&	c #635544",
"W&	c #635444",
"X&	c #5A3D28",
"Y&	c #756D61",
"Z&	c #56331D",
"`&	c #767068",
" *	c #6D665C",
".*	c #6D665B",
"+*	c #6A6359",
"@*	c #573720",
"#*	c #675C4D",
"$*	c #574637",
"%*	c #564433",
"&*	c #512D17",
"**	c #56341F",
"=*	c #6D655A",
"-*	c #736C61",
";*	c #746F64",
">*	c #5B3A26",
",*	c #55311C",
"'*	c #54321D",
")*	c #502A13",
"!*	c #757067",
"~*	c #675C4E",
"{*	c #686257",
"]*	c #6E685D",
"^*	c #5C5041",
"/*	c #5C5040",
"(*	c #4E2811",
"_*	c #584A3C",
":*	c #726C61",
"<*	c #736F64",
"[*	c #5A3A25",
"}*	c #6E675D",
"|*	c #6E685E",
"1*	c #615343",
"2*	c #55321D",
"3*	c #55311B",
"4*	c #665B4E",
"5*	c #665B4D",
"6*	c #54311D",
"7*	c #60574B",
"8*	c #5F574C",
"9*	c #4D2811",
"0*	c #544332",
"a*	c #4F2B14",
"b*	c #7F8226",
"c*	c #512A13",
"d*	c #726C62",
"e*	c #736E64",
"f*	c #593723",
"g*	c #6B6458",
"h*	c #605243",
"i*	c #55331F",
"j*	c #54311C",
"k*	c #614D39",
"l*	c #614F3B",
"m*	c #614F3C",
"n*	c #60574C",
"o*	c #4D2812",
"p*	c #544333",
"q*	c #584B3D",
"r*	c #4E2B14",
"s*	c #787B21",
"t*	c #716D63",
"u*	c #55331E",
"v*	c #6C665A",
"w*	c #6B6459",
"x*	c #675F53",
"y*	c #53301B",
"z*	c #614F3D",
"A*	c #614F3E",
"B*	c #605141",
"C*	c #605242",
"D*	c #615A52",
"E*	c #615A50",
"F*	c #615A51",
"G*	c #5F5649",
"H*	c #554637",
"I*	c #574A3C",
"J*	c #4F2A14",
"K*	c #656C17",
"L*	c #BD9842",
"M*	c #615243",
"N*	c #696258",
"O*	c #6C665C",
"P*	c #645A4D",
"Q*	c #5D4837",
"R*	c #69625B",
"S*	c #655E57",
"T*	c #655E56",
"U*	c #645D55",
"V*	c #4E2913",
"W*	c #4E2A13",
"X*	c #636917",
"Y*	c #C6A740",
"Z*	c #685F53",
"`*	c #5D4938",
" =	c #655F57",
".=	c #655E55",
"+=	c #635D55",
"@=	c #61564B",
"#=	c #5D5041",
"$=	c #4E2812",
"%=	c #A2783C",
"&=	c #63594D",
"*=	c #53321D",
"==	c #605951",
"-=	c #4E2813",
";=	c #53321E",
">=	c #52301C",
",=	c #4F2914",
"'=	c #4F2A15",
")=	c #502A15",
". . . . . + @ . . . . . . . . . . . . . . . . . . . . . . . . . . . . . . . . . . . . . . . . . ",
". . . . # $ % . . . . . . . . . . . . . . . . . . . . . . . . . . . . . . . . . . . . . . . . . ",
"& * = - ; > > , ' - ) . . . . . . . . . . . . . . . . . . . . . . . . . . . . . . . . . . . . . ",
"! ~ { ] ] ] ] ] ^ / ( _ . . . . . . . . . . . . . . . . . . . . . . . . . . . . . . . . . . . . ",
"! : < [ ] ] } | 1 2 3 4 5 6 7 . . . . . . . . . . . . . . . . . . . . . . . . . . . . . . . . . ",
"! 8 9 0 a b c d ] e f g h i h j . . . . . . . k k l m n o . . . . . . . . . . . . . . . . . . . ",
"g p ~ e q ] ] q e ~ r s s s h h t . . . u v w x x x x y z A B . . . . . . . . . . . . . . . . . ",
". . . . C D E F G H H s I I I J K L M N O P Q x x x x R R S S T . . . . U V W W X Y . . . . . . ",
". . . . Z `  .G G G G I I ....+.@.#.$.%.&.*.=.-.-.;.x x >.,.'.).. . . !.~.W W W W {.].. . . . . ",
". . . . ].^./.G G G G (._.:.:.+.<.[.}.}.|.1.2.3.3.3.-.>.3.4.5.5.6.. . 7.8.9.9.W W 9.9.Y . . . . ",
". . . 0.a.b.c.G d.e.(._.f.:.:.:.g.h.i.j.k.l.m.m.n.n.4.m.o.p.,.,.q.r.. s.t.9.9.W 9.9.9.u.. . . . ",
". . v.w.x.y.z.G A.B.C.D.D.D.D.E.F.G.G.k.l.l.p.m.n.m.H.I.H.I.I.J.q.q.K.s.L.M.9.9.9.9.9.u.N.. . . ",
". . O.P.!.y.Q.B.B.C.R.S.D.D.D.T.U.V.k.W.X.H.Y.H.H.m.Z.`.Z.Z.I. +.+q.++@+L.#+$+9.9.9.u.u.u.0.. . ",
". %+B.B.&+*+=+B.C.S.S.S.S.-+-+;+>+,+'+)+)+)+Y.Y.Y.H.m.!+~+Z.{+]+^+.+q./+(+_+:+<+[+9.}+u.u.u.|+. ",
". B.B.A.1+2+3+B.4+S.S.S.K 5+6+7+7+k.X.)+)+)+)+)+)+Y.H.!+!+~+8+]+^+q.q.9+0+a+b+b+b+_.c+d+-+-+-+e+",
". f+g+h+i+j+j+k+l+4+S.m+n+o+p+q+k.]+)+)+)+)+r+)+)+s+H.m.s+8+8+W.t+q.q.q.u+a+v+v+w+x+y+-+-+-+z+A+",
". B+C+D+E+F+F+O.G+l+5+n+H+I+J+K+l.L+)+)+)+)+r+M+N+O+P+Q+R+l.S+2.T+q.q.U+q.V+W+-+w+X+0+Y+@+j Z+A+",
"K `+`+`+ @ @`+.@l+v.+@@@#@$@J+%@k.l.)+)+)+r+&@O+*@=@-@Q+t+;@~+>@,@,@q.U+'@)@-+-+D.!@~@{@]@^@/@(@",
"_@:@:@<@`+[@}@}@|@K +@1@2@3@4@%@%@5@X.)+)+r+6@6@*@7@8@^+t+9@0@,@a@b@c@'@'@d@e@f@e@{@g@g@]@h@i@j@",
"K k@:@<@<@<@<@}@l@m@n@1@o@p@4@q@%@%@5@r@s@7@7@7@7@7@Q+t@u@v@w@x@y@z@A@B@'@C@D@e@E@g@F@F@G@H@I@j@",
"J@K@:@<@<@<@<@<@_@L@M@N@O@p@4@4@%@%@%@P@Q@s@7@7@r@5@t@R@v@S@T@y@z@U@V@W@X@Y@Z@D@E@F@]@F@^@e.`@j@",
" #K@:@:@<@<@<@<@.#+#M@@#O@O@##4@$#%@%@%@P@5@5@5@%#&#R@&#*#=#-#z@U@;#W@>#,#'#)#)#!#F@F@~#{#B.]#j@",
"K ^#$+/#/#(#_#<@:#<#L@[#}#O@p@4@4@q@%@%@|#1#1#1#1#2#2#v@3#b@4#U@5#W@6#,#7#8#9#M 0#0#~#~#a#b#c#j@",
"0+^#^#k+d#d#]+]+{.<@e#f#g#g#O@p@4@4@q@%@|#1#1#1#h#i#v@v@S@4#z@V@W@6#j#k#l#m#9#n#o#p#p#~#A.q#r#j@",
"<#^#s#t#u#v#v#v#{.w#x#y#z#z#A#B#C#4@4@=.j.h#h#h#D#i#i#E#F#G#U@V@H#,#I#J#K#L#M#N#O#P#p#~#Q#R#S#j@",
". ^#T#T#U#V#V#V#W#X#!@Y#Z#z#z#A#A#`# $i#i#i#i#i#i#j..$E#+$+$@$6#,#I##$$$. %$%$&$&$*$=$-$;$>$l+j@",
". v+T#T#,$W#W#W#'$)$!$~${$]$^$/$($A#_$_$:$i#i#D#D#.$E#<$+$[$}$j#I#|$1$2$3$4$5$&$&$6$7$8$;$>$9$. ",
". 0$T#,$,$a$b$c$d$e$f$g$g$h$i$^$/$($B#_$_$:$D#i#i#F#<$+$j$k$l$m$#$n$o$p$p$5$5$&$6$6$q$r$s$t$9$. ",
". 0$,$,$,$a$u$v$w$A.A.e$f$x$y$z$^$/$/$A$B$C$D$E$F$<$+$+$j$k$l$G$H$I$J$J$J$&$6$6$6$K$L$r$t$M$9$. ",
"N$O$P$Q$R$S$T$U$V$d+W$v#X$X$x$y$Y$Z$z$`$F$`$`$ %.%<$+$j$+%@%#%Q#$%$%$%%%&$6$&%*%L$r$r$=%M$-%. . ",
";%>%,%'%)%!%~%{%]%^%/%/%X$V#V#(%_%:%<%[%}%}%}%|%1%<$j$2%@%3%4%$%$%$%$%5%&$6%7%L$r$r$r$8%9%M$0%. ",
"a%>%,%b%c%d%e%f%g%^%h%i%/%V#V#j%k%d#l%m%n%o%p%q%r%s%n%t%u%~+4.v%$%$%w%x%y%z%A%L$r$r$=%q#B%C%0%. ",
"D%>%E%b%F%G%H%I%^%h%J%K%L%W#M%j%N%d#O%P%Q%t%P#t%t%R%R%R%~+4.3.3.)$S%T%U%U%V%W%W%r$X%X%Y%Z%C%0%. ",
"`%>%E%b%F% &.&+&h%K%K%@&#&#&i%$&%&&&*&=&-&t%P#P#R%R%R%u%u%;&>&,&3$i%U%U%U%'&S#)&X%X%!&B%Z%C%0%. ",
"~&{&E%]&F%^&/&(&P O i%#&L%_&i%:&<&[&}&|&|&M.d+1&1&1&g+y%y%2&3&4&5&6&U%7&7&8&9&0&X%a&B%Z%b&C%0%. ",
". {&O$c&d& &e&/@)%f&i%g&g&g&h&i&j&k&k&|&|&l&l&l&l&|&|&m&m&m&3&4&I$n&7&7&o&p&q&r&a&C%Z%Z%C%s&0%. ",
". t&u&u&d&v&w&x&s.y&y&z&A&A&A&B&C&D&E&F&b+l&l&l&l&m&m&T#G&H&I&J&3+K&L&r#8&M&M&N&C%C%C%b&O&. . . ",
". . P&u&u&Q&R&S&T&U&V&W&X&A&Y&Z&`& * * *.* *E&D&T#T#D&D&+*I&I&J&@*K&#*a&a&$*%*%*C%C%s&b&&*. . . ",
". . . **=*-*;*;*>*W&A%J&7%,*'*)*!*.*.*.*.*.*.*.*D&D&~*~*G&I&{*]*a&a&a&^*/*(*%*C%C%_*Z%Z%. . . . ",
". . . . !&:*<*<*[*7%}*|*]*L$1*1*)*)*2*3*.*.*.*.*.*~*4*5*5*6*Y%a&7*8*8*^*/*9*0*C%_*_*Z%a*. . . . ",
". . . . b*c*d*e*f*L$ *]*]*]*g*h*h*h*h*h*i*j*j*j*j*j*'*'*'*k*l*m*7*n*8*^*^*o*p*C%_*q*r*. . . . . ",
". . . . . s*)*t*u*1*v*]*}*^#w*w*x*[$x*h*h*h*y*z*z*z*A*B*C*D*E*F*7*7*G*^*^*o*H*I*J*a*. . . . . . ",
". . . . . K*L*)*)*M*N*O*+*w*w*x*x*x*x*x*P*P*Q*R*R*S*T*U*D*D*D*F*8*G*G*^*^*o*V*W*. . . . . . . . ",
". . . . . . X*L*L*X*. Y*j+j+j+Z*x*x*x*P*P*P*`*R*R*R* =.=+=D*D*F*@=G*G*#=$=. . . . . . . . . . . ",
". . . . Y*Y*. X*X*. . %=Y*. . j+j+j+P*P*P*&=*=R*R*R* =S*U*D*D*==-=-=o*$=. . . . . . . . . . . . ",
". . . Y*%=%=Y*. . . . X*X*. . . . . j+;=>=>=$=R*R*R* =S*J*J*J*,=. . . . . . . . . . . . . . . . ",
". . . X*Y*Y*X*. . . . . . . . . . . . K*s*s*. V*J*J*'=)=. . . . . . . . . . . . . . . . . . . . ",
". . . . X*X*. . . . . . . . . . . . . . K*s*s*s*K*. . . . . . . . . . . . . . . . . . . . . . . "};
