/* XPM */
static char * item_xpm[] = {
"48 48 731 2",
"  	c None",
". 	c #72751B",
"+ 	c #5E3923",
"@ 	c #5A361F",
"# 	c #5A351E",
"$ 	c #5E3B23",
"% 	c #59351D",
"& 	c #59351E",
"* 	c #5D3922",
"= 	c #5D3721",
"- 	c #806F5F",
"; 	c #7A6855",
"> 	c #796653",
", 	c #58341C",
"' 	c #542D15",
") 	c #542C15",
"! 	c #59331B",
"~ 	c #532C15",
"{ 	c #532C14",
"] 	c #5E3C25",
"^ 	c #786553",
"/ 	c #796754",
"( 	c #7F6F5E",
"_ 	c #58331C",
": 	c #66452F",
"< 	c #867867",
"[ 	c #806F5C",
"} 	c #7F6E5C",
"| 	c #5C3820",
"1 	c #705436",
"2 	c #6F5133",
"3 	c #715335",
"4 	c #705334",
"5 	c #83694C",
"6 	c #6F5033",
"7 	c #705235",
"8 	c #6F5234",
"9 	c #765B3D",
"0 	c #5D3820",
"a 	c #7F6548",
"b 	c #6E5033",
"c 	c #62402B",
"d 	c #7E6D5C",
"e 	c #857767",
"f 	c #603C26",
"g 	c #694A34",
"h 	c #94897B",
"i 	c #8A7C6B",
"j 	c #613C25",
"k 	c #7C6043",
"l 	c #82694C",
"m 	c #836A4D",
"n 	c #877052",
"o 	c #67462C",
"p 	c #8F785B",
"q 	c #82694B",
"r 	c #836A4C",
"s 	c #82684B",
"t 	c #897357",
"u 	c #65442A",
"v 	c #877054",
"w 	c #81684B",
"x 	c #63422D",
"y 	c #897B6B",
"z 	c #93887B",
"A 	c #6B4C38",
"B 	c #998F81",
"C 	c #938676",
"D 	c #623F2A",
"E 	c #806649",
"F 	c #856C4E",
"G 	c #856C4F",
"H 	c #8F785D",
"I 	c #6A492E",
"J 	c #937D62",
"K 	c #846B4D",
"L 	c #846C4E",
"M 	c #67472C",
"N 	c #8B7558",
"O 	c #846A4D",
"P 	c #836B4E",
"Q 	c #65442E",
"R 	c #918576",
"S 	c #988E81",
"T 	c #64442F",
"U 	c #6D4F3A",
"V 	c #9F9588",
"W 	c #948778",
"X 	c #643F2A",
"Y 	c #8C7759",
"Z 	c #8E795C",
"` 	c #988167",
" .	c #75583C",
"..	c #917B5F",
"+.	c #8C7659",
"@.	c #8D785C",
"#.	c #8D785B",
"$.	c #907A5E",
"%.	c #6A4B2F",
"&.	c #8E775A",
"*.	c #8B7658",
"=.	c #8D775B",
"-.	c #65442F",
";.	c #928677",
">.	c #9E9488",
",.	c #664731",
"'.	c #6B4C37",
").	c #A1978A",
"!.	c #9B9082",
"~.	c #9B9182",
"{.	c #633F2A",
"].	c #988267",
"^.	c #968064",
"/.	c #8E785C",
"(.	c #927C61",
"_.	c #6A4B30",
":.	c #8F795C",
"<.	c #978B7E",
"[.	c #988B7E",
"}.	c #9F968A",
"|.	c #674832",
"1.	c #6C4C37",
"2.	c #A2988C",
"3.	c #A1978B",
"4.	c #64412B",
"5.	c #846A4C",
"6.	c #958064",
"7.	c #9C876C",
"8.	c #75563A",
"9.	c #988367",
"0.	c #957F64",
"a.	c #947F64",
"b.	c #958065",
"c.	c #6B4D32",
"d.	c #968164",
"e.	c #947F63",
"f.	c #674731",
"g.	c #A0968A",
"h.	c #A09589",
"i.	c #A3998D",
"j.	c #A09789",
"k.	c #A09689",
"l.	c #633F29",
"m.	c #958166",
"n.	c #978165",
"o.	c #968165",
"p.	c #9A866A",
"q.	c #958165",
"r.	c #968267",
"s.	c #6C4C31",
"t.	c #978267",
"u.	c #948065",
"v.	c #948064",
"w.	c #664631",
"x.	c #9F9488",
"y.	c #6A4B36",
"z.	c #A2998C",
"A.	c #633E27",
"B.	c #967F63",
"C.	c #978065",
"D.	c #998468",
"E.	c #735439",
"F.	c #988468",
"G.	c #957F63",
"H.	c #694A2F",
"I.	c #947E62",
"J.	c #9E9487",
"K.	c #694934",
"L.	c #66442D",
"M.	c #A1988B",
"N.	c #988D7E",
"O.	c #603A23",
"P.	c #917A5C",
"Q.	c #917A5D",
"R.	c #907A5C",
"S.	c #735438",
"T.	c #90795B",
"U.	c #91795D",
"V.	c #90795D",
"W.	c #8E785B",
"X.	c #978367",
"Y.	c #69492E",
"Z.	c #978266",
"`.	c #8F795B",
" +	c #978C7D",
".+	c #64412A",
"++	c #978C7C",
"@+	c #5F3921",
"#+	c #7E6346",
"$+	c #90795C",
"%+	c #68482D",
"&+	c #968B7B",
"*+	c #623E28",
"=+	c #9C9384",
"-+	c #8F8270",
";+	c #5B361E",
">+	c #7D6245",
",+	c #917B5E",
"'+	c #957F62",
")+	c #6D4D31",
"!+	c #968065",
"~+	c #8F785C",
"{+	c #66462A",
"]+	c #907A5D",
"^+	c #64412C",
"/+	c #8D816F",
"(+	c #9A9183",
"_+	c #623D27",
":+	c #8E8270",
"<+	c #59331C",
"[+	c #785A3E",
"}+	c #846B4E",
"|+	c #8A7254",
"1+	c #8C7357",
"2+	c #846A4E",
"3+	c #836A4E",
"4+	c #836B4F",
"5+	c #8D755A",
"6+	c #623F24",
"7+	c #8C7458",
"8+	c #83694D",
"9+	c #64432D",
"0+	c #8D806F",
"a+	c #674732",
"b+	c #613C26",
"c+	c #968B7C",
"d+	c #887A69",
"e+	c #887B69",
"f+	c #562E15",
"g+	c #76583D",
"h+	c #886F52",
"i+	c #623C23",
"j+	c #897256",
"k+	c #8B7459",
"l+	c #5C361C",
"m+	c #897054",
"n+	c #82694D",
"o+	c #613D29",
"p+	c #867968",
"q+	c #867868",
"r+	c #63402B",
"s+	c #5F3923",
"t+	c #918374",
"u+	c #887A68",
"v+	c #81674B",
"w+	c #866D50",
"x+	c #5D381E",
"y+	c #876F53",
"z+	c #7B6043",
"A+	c #7A5F43",
"B+	c #7A5E42",
"C+	c #7A5E43",
"D+	c #795D43",
"E+	c #897156",
"F+	c #58331A",
"G+	c #897155",
"H+	c #81684C",
"I+	c #603C28",
"J+	c #8F8273",
"K+	c #603E29",
"L+	c #5B351E",
"M+	c #552E15",
"N+	c #75583D",
"O+	c #775A3E",
"P+	c #76573D",
"Q+	c #77583D",
"R+	c #76593D",
"S+	c #806648",
"T+	c #705136",
"U+	c #5E3A25",
"V+	c #5D3923",
"W+	c #5D3A24",
"X+	c #5A3721",
"Y+	c #5B3822",
"Z+	c #7B5F45",
"`+	c #563218",
" @	c #76593C",
".@	c #75583E",
"+@	c #725439",
"@@	c #715339",
"#@	c #715338",
"$@	c #6F5036",
"%@	c #5D3822",
"&@	c #5B3720",
"*@	c #B3B0A9",
"=@	c #5A341D",
"-@	c #978B7C",
";@	c #958A7A",
">@	c #552D15",
",@	c #8F816F",
"'@	c #8F816E",
")@	c #58331B",
"!@	c #542E15",
"~@	c #532B14",
"{@	c #563019",
"]@	c #948979",
"^@	c #968A7B",
"/@	c #5F3C25",
"(@	c #A2814F",
"_@	c #5F3A24",
":@	c #897D6B",
"<@	c #7E6F5D",
"[@	c #7D6E5D",
"}@	c #62422A",
"|@	c #613F29",
"1@	c #603F29",
"2@	c #7B6D5C",
"3@	c #7A6957",
"4@	c #5F3D24",
"5@	c #6B4F31",
"6@	c #62442D",
"7@	c #63442D",
"8@	c #62452D",
"9@	c #542E16",
"0@	c #7C6C5C",
"a@	c #7D6E5C",
"b@	c #887C6A",
"c@	c #5D3A23",
"d@	c #7F8226",
"e@	c #636917",
"f@	c #5F3B25",
"g@	c #867A68",
"h@	c #7C6D5B",
"i@	c #7C6C5B",
"j@	c #64462C",
"k@	c #725637",
"l@	c #715637",
"m@	c #735638",
"n@	c #715638",
"o@	c #765B3C",
"p@	c #6A4E30",
"q@	c #726351",
"r@	c #81715F",
"s@	c #6F604E",
"t@	c #522B14",
"u@	c #522C14",
"v@	c #755A3B",
"w@	c #6E5235",
"x@	c #7B6A5A",
"y@	c #7B6B5A",
"z@	c #857867",
"A@	c #5C3721",
"B@	c #603D27",
"C@	c #827363",
"D@	c #766653",
"E@	c #63452B",
"F@	c #6D5033",
"G@	c #6D5132",
"H@	c #755B3B",
"I@	c #70604F",
"J@	c #6F604F",
"K@	c #74593A",
"L@	c #746552",
"M@	c #746452",
"N@	c #807262",
"O@	c #59341F",
"P@	c #5D3823",
"Q@	c #71624F",
"R@	c #62432A",
"S@	c #6C5033",
"T@	c #6C5031",
"U@	c #6C4F31",
"V@	c #6A4D30",
"W@	c #695443",
"X@	c #68523F",
"Y@	c #7B6A56",
"Z@	c #695543",
"`@	c #72583A",
" #	c #716250",
".#	c #70614E",
"+#	c #7A6C5B",
"@#	c #542E19",
"##	c #9CA8AD",
"$#	c #787B21",
"%#	c #57321A",
"&#	c #766754",
"*#	c #70614D",
"=#	c #502A13",
"-#	c #614228",
";#	c #694D30",
">#	c #624127",
",#	c #6A4E31",
"'#	c #725839",
")#	c #6B4F32",
"!#	c #4F2913",
"~#	c #6F604D",
"{#	c #756654",
"]#	c #522B17",
"^#	c #512A14",
"/#	c #73624D",
"(#	c #6C5943",
"_#	c #6D5944",
":#	c #4E2912",
"<#	c #603E24",
"[#	c #684B2F",
"}#	c #614127",
"|#	c #694C30",
"1#	c #674B2F",
"2#	c #4D2812",
"3#	c #6C5844",
"4#	c #6B5843",
"5#	c #72614D",
"6#	c #502914",
"7#	c #4F2813",
"8#	c #75624E",
"9#	c #6C5843",
"0#	c #6C5742",
"a#	c #603D24",
"b#	c #664A2E",
"c#	c #4E2913",
"d#	c #6B5742",
"e#	c #74624E",
"f#	c #4E2713",
"g#	c #4E2813",
"h#	c #684C30",
"i#	c #725739",
"j#	c #674A2E",
"k#	c #4E2712",
"l#	c #5A3722",
"m#	c #57331E",
"n#	c #56321D",
"o#	c #5F3C23",
"p#	c #5F3C24",
"q#	c #56321C",
"r#	c #57331D",
"s#	c #847866",
"t#	c #827564",
"u#	c #847765",
"v#	c #4F2A13",
"w#	c #4E2812",
"x#	c #62442E",
"y#	c #62452F",
"z#	c #63452F",
"A#	c #847665",
"B#	c #827463",
"C#	c #827563",
"D#	c #847865",
"E#	c #4E2613",
"F#	c #766753",
"G#	c #5F402B",
"H#	c #61432E",
"I#	c #60412C",
"J#	c #777466",
"K#	c #5E3F29",
"L#	c #897C6C",
"M#	c #8A7D6C",
"N#	c #8A7D6D",
"O#	c #887B6A",
"P#	c #867A69",
"Q#	c #857968",
"R#	c #837765",
"S#	c #7E705E",
"T#	c #7C6E5C",
"U#	c #7A6C5A",
"V#	c #6F5F4D",
"W#	c #4F2713",
"X#	c #634D39",
"Y#	c #62442F",
"Z#	c #624530",
"`#	c #634630",
" $	c #634530",
".$	c #787466",
"+$	c #787566",
"@$	c #787568",
"#$	c #5E3F2A",
"$$	c #695644",
"%$	c #685442",
"&$	c #685341",
"*$	c #675341",
"=$	c #4F2B15",
"-$	c #76634F",
";$	c #634C37",
">$	c #634C38",
",$	c #634D38",
"'$	c #634631",
")$	c #7C7A6E",
"!$	c #7E7B6E",
"~$	c #7E7C6F",
"{$	c #7F7C6F",
"]$	c #787567",
"^$	c #767266",
"/$	c #757164",
"($	c #60442F",
"_$	c #664E3A",
":$	c #644D39",
"<$	c #5E4431",
"[$	c #5E422F",
"}$	c #5C3D29",
"|$	c #5C3C28",
"1$	c #5C3D28",
"2$	c #8B8980",
"3$	c #7A786B",
"4$	c #7D796D",
"5$	c #7E7C6E",
"6$	c #7F7C70",
"7$	c #807C70",
"8$	c #807E71",
"9$	c #797667",
"0$	c #674F3B",
"a$	c #716B5C",
"b$	c #726D5F",
"c$	c #736E5F",
"d$	c #726E5F",
"e$	c #777569",
"f$	c #747267",
"g$	c #593925",
"h$	c #593824",
"i$	c #71741B",
"j$	c #644733",
"k$	c #644834",
"l$	c #61442F",
"m$	c #676159",
"n$	c #8C8A81",
"o$	c #7D7A6C",
"p$	c #807D70",
"q$	c #807E70",
"r$	c #817E72",
"s$	c #817E71",
"t$	c #817D71",
"u$	c #807D71",
"v$	c #797567",
"w$	c #747063",
"x$	c #747064",
"y$	c #522C15",
"z$	c #604633",
"A$	c #624835",
"B$	c #644B37",
"C$	c #736C5E",
"D$	c #746F60",
"E$	c #757060",
"F$	c #7B796C",
"G$	c #7A776B",
"H$	c #664A35",
"I$	c #858377",
"J$	c #7C786B",
"K$	c #7B776B",
"L$	c #593720",
"M$	c #69625A",
"N$	c #8D8A81",
"O$	c #7E7B6D",
"P$	c #7F7D6F",
"Q$	c #817F71",
"R$	c #817F72",
"S$	c #807C6F",
"T$	c #7F7B6F",
"U$	c #7E7A6E",
"V$	c #88857C",
"W$	c #858277",
"X$	c #542F19",
"Y$	c #5D412E",
"Z$	c #87857B",
"`$	c #746F61",
" %	c #7B796D",
".%	c #7A786D",
"+%	c #828075",
"@%	c #573723",
"#%	c #694D38",
"$%	c #88867A",
"%%	c #7D786B",
"&%	c #7A7568",
"*%	c #512B14",
"=%	c #68625A",
"-%	c #8E8B82",
";%	c #827F71",
">%	c #7E7A6D",
",%	c #7D796C",
"'%	c #8C8A80",
")%	c #89867C",
"!%	c #88857B",
"~%	c #665C50",
"{%	c #532D17",
"]%	c #5D402C",
"^%	c #89877C",
"/%	c #89877E",
"(%	c #89877D",
"_%	c #848278",
":%	c #828175",
"<%	c #7B796E",
"[%	c #828077",
"}%	c #5D5445",
"|%	c #563520",
"1%	c #8A877B",
"2%	c #7D786C",
"3%	c #7A7667",
"4%	c #69635A",
"5%	c #827E71",
"6%	c #828072",
"7%	c #827F72",
"8%	c #8F8D83",
"9%	c #665D51",
"0%	c #655C4F",
"a%	c #665D52",
"b%	c #522D17",
"c%	c #737063",
"d%	c #5C402C",
"e%	c #87857A",
"f%	c #8D8B81",
"g%	c #85837A",
"h%	c #7C7A6D",
"i%	c #838177",
"j%	c #5A4D42",
"k%	c #5A4D41",
"l%	c #563521",
"m%	c #6A4E38",
"n%	c #8C8A7F",
"o%	c #828073",
"p%	c #746E5F",
"q%	c #746D5F",
"r%	c #757061",
"s%	c #8E8C82",
"t%	c #726C60",
"u%	c #655C4E",
"v%	c #655B4D",
"w%	c #665E53",
"x%	c #665D50",
"y%	c #747164",
"z%	c #777368",
"A%	c #5C3F2C",
"B%	c #807D6F",
"C%	c #7F7D70",
"D%	c #5B4E43",
"E%	c #55331D",
"F%	c #6A4D37",
"G%	c #8D8A7F",
"H%	c #8B897D",
"I%	c #736D5F",
"J%	c #665C4F",
"K%	c #665C4E",
"L%	c #726E61",
"M%	c #757166",
"N%	c #787569",
"O%	c #7A786C",
"P%	c #848175",
"Q%	c #807C6E",
"R%	c #817E70",
"S%	c #86847B",
"T%	c #61594F",
"U%	c #60594E",
"V%	c #52301B",
"W%	c #694B34",
"X%	c #8D8B7E",
"Y%	c #8C897D",
"Z%	c #8B887D",
"`%	c #502A14",
" &	c #675F55",
".&	c #675E52",
"+&	c #675D50",
"@&	c #6E6759",
"#&	c #6F695A",
"$&	c #716B5E",
"%&	c #736F62",
"&&	c #777367",
"*&	c #88857D",
"=&	c #817C6E",
"-&	c #817D6E",
";&	c #8C8981",
">&	c #62594F",
",&	c #62594E",
"'&	c #60584D",
")&	c #71731B",
"!&	c #6A4D35",
"~&	c #959288",
"{&	c #949288",
"]&	c #929086",
"^&	c #8F8C83",
"/&	c #8D8B82",
"(&	c #676058",
"_&	c #675E51",
":&	c #6F685A",
"<&	c #6B6456",
"[&	c #6D6659",
"}&	c #706A5C",
"|&	c #716C5F",
"1&	c #69645B",
"2&	c #8E8C83",
"3&	c #807E72",
"4&	c #908D84",
"5&	c #625B51",
"6&	c #625A50",
"7&	c #4F2C16",
"8&	c #5B3B26",
"9&	c #77736A",
"0&	c #6C685E",
"a&	c #6C675E",
"b&	c #5E4E3F",
"c&	c #5D4D3E",
"d&	c #615143",
"e&	c #655B4E",
"f&	c #6D695F",
"g&	c #6A645B",
"h&	c #908E85",
"i&	c #828071",
"j&	c #645C52",
"k&	c #676259",
"l&	c #5E5141",
"m&	c #5D4E3F",
"n&	c #645B4E",
"o&	c #655B4F",
"p&	c #6E6A60",
"q&	c #6E6960",
"r&	c #6A655C",
"s&	c #706C61",
"t&	c #8F8D84",
"u&	c #655E56",
"v&	c #645D55",
"w&	c #635C52",
"x&	c #78746B",
"y&	c #665E54",
"z&	c #615649",
"A&	c #605446",
"B&	c #5E5040",
"C&	c #605042",
"D&	c #7F7C73",
"E&	c #716D63",
"F&	c #6F6B61",
"G&	c #4E2E1A",
"H&	c #6F6B60",
"I&	c #655E57",
"J&	c #645C55",
"K&	c #645B4F",
"L&	c #7E7B72",
"M&	c #6E6A61",
"N&	c #655F56",
"O&	c #665E56",
"P&	c #C6A740",
"Q&	c #656C17",
"R&	c #7D7A71",
"S&	c #4E2A15",
"T&	c #645E57",
"U&	c #4D2914",
"V&	c #4D2B16",
". . . . . . . . . . . . . . . . . . . . . . . . . . . . . . . . . . . . . . . . . . . . . . . . ",
". . . . . . . . . . . . . . . . . . . . . . . . . . . . . . . . . . . . . . . . . . . . . . . . ",
". . . . . . . . . + @ # # . . . . . . . . . . . . . . . . . . . . . . $ % & * . . . . . . . . . ",
". . . . . . . . = - ; > , ' ' ' ' ) ! . ) ~ { { { { { { . { { { { { { ] ^ / ( _ . . . . . . . . ",
". . . . . . . . : < [ } | 1 2 2 3 4 5 ! 5 6 6 7 7 7 8 9 0 a b b 7 7 8 c d } e f . . . . . . . . ",
". . . . . . . . g h i i j k l m m 5 n o p q r r l l s t u v w l l l s x y y z x . . . . . . . . ",
". . . . . . . . A B C C D E F F F G H I J K K K K K L H M N m m O m P Q R R S T . . . . . . . . ",
". . . . . . . . U V W W X a Y Z Z Z `  ...+.@.@.@.#.#.$.%.&.*.=.=.=.=.-.;.;.>.,.. . . . . . . . ",
". . . . . . . . '.).!.~.{.5 Z Z Z Z ]. .^.Z /.@.@.@.@.(._.:.#.#.#.#.#.-.<.[.}.|.. . . . . . . . ",
". . . . . . . . 1.2.).3.4.5.6.6.6.6.7.8.9.0.0.a.a.a.a.b.c.d.e.e.e.e.e.f.g.h.3.g . . . . . . . . ",
". . . . . . . . 1.i.j.k.l.5 6.m.n.o.p.8.9.6.q.b.b.b.b.r.s.t.a.u.b.b.v.w.x.V 2.y.. . . . . . . . ",
". . . . . . . . 1.z.j.V A.s B.C.C.^.D.E.F.G.^.0.0.0.0.t.H.t.I.0.0.0.G.f.J.V 3.K.. . . . . . . . ",
". . . . . . . . L.M.N.N.O.a P.Q.Q.R.D.S.9.T.U.V.:.:.W.X.Y.Z.:.:.:.`.`.:  + +g.K.. . . . . . . . ",
". . . . . . . . .+j.++++@+#+P.P.P.R.d.S.Z.R.$+$+:.:.:.t.%+Z.`.`.:.`.`.Q &+&+V K.. . . . . . . . ",
". . . . . . . . *+=+-+-+;+>+,+P.R.R.'+)+!+~+/./././.W.^.{+o.]+`.`.`.`.^+/+/+(+K.. . . . . . . . ",
". . . . . . . . _+~.:+:+<+[+}+}+m }+|+)+1+2+3+4+P P m 5+6+7+8+m m m m 9+0+0+B a+. . . . . . . . ",
". . . . . . . . b+c+d+e+f+g+}+}+}+}+h+i+j+m m m 8+8+8+k+l+m+n+n+n+n+n+o+p+q+h r+. . . . . . . . ",
". . . . . . . . s+t+u+u+f+g+}+}+2+v+w+x+y+z+A+B+C+C+D+E+F+G+n+H+n+H+H+I+< < J+K+. . . . . . . . ",
". . . . . . . . L+M+f+f+M+N+O+P+Q+R+S+' T+U+V+W+X+Y+% Z+`+ @.@+@@@#@$@%@{ { { &@. . . . . . . . ",
". . . . *@*@. . =@&+-@;@>@>@>@>@>@' ' ) ) { ,@'@'@'@)@{ !@~@~@{ { { { {@]@^@;@/@. . . . . . . . ",
". . . *@(@(@*@. _@:@<@[@>@}@|@1@1@1@K+) $ { 2@{ { 3@~@4@{ 5@6@7@6@8@6@9@0@a@b@c@. . . d@. . . . ",
". . . e@*@*@e@*@f@g@h@i@' j@k@l@m@n@o@{ p@{ q@r@~@s@t@4@u@v@w@w@w@w@w@~@x@y@z@A@. . d@. . . . . ",
". . *@*@e@e@. *@B@C@D@D@) E@b F@F@G@H@{ p@~@I@s@t@J@t@4@u@K@5@5@5@5@5@t@L@M@N@O@. d@d@. . . . . ",
". . (@*@. . . e@P@2@Q@q@{ R@S@T@U@U@H@~@V@t@W@X@Y@Z@t@4@u@`@5@5@5@5@5@t@ #.#+#@###$#$#. . . . . ",
". . e@e@. . . . %#&#*#*#=#-#U@U@U@5@v@~@;#>#t@t@t@t@4@,#u@'#5@5@5@5@)#!#~#~#{#]#e@*@*@. . . . . ",
". . . . . . . . ^#/#(#_#:#<#[#[#[#[#K@t@;#;#}#}#>#>#|#;#u@`@;#1#1#1#;#2#3#4#5#6#. (@*@. . . . . ",
". . . . . . . . 7#8#9#0#!#a#1#1#1#b#`@t@;#;#;#;#;#;#;#;#u@'#1#1#1#1#1#c#d#4#e#f#. e@e@. . . . . ",
". . . . . . . . g#e#4#d#c#4@h#1#1#b#`@t@;#;#;#;#;#;#;#|#u@i#j#1#1#1#;#c#d#4#e#f#. . . . . . . . ",
". . . . . . . . k#l#l#m#n#4@4@4@4@4@K@t@4@4@4@4@4@4@4@4@u@i#4@o#p#4@4@q#r#m#r#f#. . . . . . . . ",
". . . . . . . . k#s#t#t#u#v#w#c#t@x#y#z#t@t@t@t@t@t@t@t@t@t@t@t@!#!#!#A#B#C#D#E#. . . . . . . . ",
". . . . . . . . g#s@s@~#F#!#G#H#I#J#J#J#K#L#M#N#N#O#P#P#Q#s#R#S#T#U#w#D@V#V#~#E#. . . . . . . . ",
". . . . . . . . W#X#Y#Z#`# $.$.$.$+$.$J#@$H#`#z##$$$Z@%$%$%$%$&$*$*$=$-$;$>$,$W#. . . . . . . . ",
". . . . . . . Z#'$'$)$!$~${$]$]$]$]$+$+$+$@$^$^$/$($f#f#f#f#f#f#f#f#k#k#W#W#W#_$:$<$[$}$|$. . . ",
". . . . . . 1$2$3$4$5$6$7$8$8$9$9$9$!$!$]$+$+$J#J#($. . . . . . . . . . . . 0$a$b$c$d$e$f$g$h$i$",
". j$k$k$k$l$#$m$n$o$~$p$p$q$r$s$t$u$!$!$!$v$+$.$w$x$y$. . . . . . . . z$A$B$C$D$E$E$F$F$3$G$e$g$",
"H$I$~$J$J$K$L$M$N$O$P$q$Q$R$Q$Q$Q$s$S${$T$!$U$+$V$W$X$. . . . . . . Y$Z$`$`$`$`$ % % % %.%.%+%@%",
"#%$%u$u$%%J$&%*%=%-%p$t$Q$Q$;%Q$s$t${$>%,%'%)%!%~%~%{%!#. . . . . ]%^%/%(%D$_%:% % % %<% %[%}%|%",
"#%1%t$u$u$2%3%*%4%N$s$s$s$5%6%7%;%p$8%-%n$9%0%a%~%~%b%c%!#. . . d%e%f%{${$g%P$P$h%h%h%h%i%j%k%l%",
"m%n%o%r$t$6%Q$s$*%=%-%p%q%r%6%8%s%n$t%t%t%u%v%w%9%x%!#y%z%!#. A%^%{${${$B%C%C%u$u$)$)$i%D%k%k%E%",
"F%G%H%r$s$6%Q$s$*%=%n$p%I%s%N$t%t%t%t%t%t%J%K%!#!#!#L%M%N%O%!#P%Q%Q%Q%R%q$8$s$s$s$s$S%T%U%j%j%V%",
"W%X%Y%H%Z%6%Q$s$q$`%=%'%2$ &.&+&+&t%t%t%!#!#!#@&#&$&%&&&2$2$!#/%*&Q%=&-&8$Q$R$R$Q$;&>&,&U%'&b%)&",
"!&~&{&{&]&^&s%/&f%`%=%2$(& &_&+&J%!#!#!#2$:&<&[&}&|&2$2$m$m$!#1&1&/&2&R%3&R$R$;%4&5&6&>&U%7&. . ",
"8&9&0&a&0&0&0&0&0&0&!#2$(& &!#!#!#b&c&d&e&2$}&}&2$2$f&m$m$m$!#g&g&g&1&h&]&R$i&2&j&5&6&6&c#. . . ",
"!#9&0&0&0&0&0&0&k&m$m$!#!#!#l&l&!#!#m&d&n&o&2$2$p&q&q&m$m$m$!#r&g&g&g&1&s&t&t&u&v&w&5&2#. . . . ",
"!#x&0&0&0&0&0&m$m$m$m$y&z&A&l&B&!#. !#C&n&n&D&E&F&q&m$m$!#!#)&G&G&g&g&1&H&H&2&I&u&J&2#. . . . . ",
". !#!#!#!#!#!#!#!#!#!#!#!#!#!#!#. . . !#d&K&L&E&M&q&!#!#. . . . . G&G&1&4%H&/&N&O&2#. . . . . . ",
". . . e@P&P&e@. . . . . . . . . . . . Q&!#K&R&E&!#!#. . . . . . . . . S&c#k&2$T&2#. . . . . . . ",
". . . . e@e@. . . . . . . . . . . . . . Q&!#!#!#Q&. . . . . . . . . . . . U&V&V&. . . . . . . . "};
