/* XPM */
static char *item[] = {
/* columns rows colors chars-per-pixel */
"32 32 8 1 ",
"  c #3F2631",
". c #E84537",
"X c #BD6C4A",
"o c #FF706D",
"O c #EAA56C",
"+ c #8B9BB4",
"@ c #C0CBDC",
"# c None",
/* pixels */
"################################",
"################################",
"################################",
"################################",
"##########            ##########",
"##########            ##########",
"########                ########",
"########                ########",
"########    XXOOOOXX    ########",
"########    XXOOOOXX    ########",
"########    XXOOOOXX    ########",
"########    XXOOOOXX    ########",
"########      ++++      ########",
"########      ++++      ########",
"########      @@@@      ########",
"########      @@@@      ########",
"######      oooooooo      ######",
"######      oooooooo      ######",
"######    ..oooooooo..    ######",
"######    ..oooooooo..    ######",
"######    ............    ######",
"######    ............    ######",
"######    ............    ######",
"######    ............    ######",
"######      ........      ######",
"######      ........      ######",
"########                ########",
"########                ########",
"##########            ##########",
"##########            ##########",
"################################",
"################################"
};
