/* XPM */
static char * monster_xpm[] = {
"48 48 26 1",
" 	c None",
".	c #72751B",
"+	c #45283C",
"@	c #DF7126",
"#	c #AC3232",
"$	c #8F563B",
"%	c #787B21",
"&	c #306082",
"*	c #524B24",
"=	c #656C17",
"-	c #000000",
";	c #3F3F74",
">	c #CBDBFC",
",	c #76428A",
"'	c #5FCDE4",
")	c #D95763",
"!	c #222034",
"~	c #D9A066",
"{	c #663931",
"]	c #B3B0A9",
"^	c #A2814F",
"/	c #7F8226",
"(	c #636917",
"_	c #BD9842",
":	c #A2783C",
"<	c #C6A740",
".................................++.............",
"......++.........................+@+............",
"......+#+.........$$$$$$$$.......+@@+...........",
"......+#+.......$$@@@@@@@@$$......+@@++.........",
"......+##+%....$@@@@@@@@@@@@+......+&@@+........",
"......++*+%%...$##@@@#######@+......+&&&+.......",
".......+**+=..+--;;++;---+++#@........+@&+......",
".......-*#+...+>-;;,,;->--;++#+........@&&+.....",
".......-*##..-+'-;,));-'--;++#+........@@&+.....",
".......-;##..++---)));----;++#+........@@@+.....",
".......-;*#..++;;-)));;;;;;++#+........+@@&+....",
".......-;*#..++$!)~>#,!!$$$++#+++......+@@&+....",
"......-*;;*..+$$!)~~~!!!{$$$+###+......**@@+....",
"......-;;;;..-{@-----!!+@@$$+#@#+.....-*##@+....",
"......-;;;;-.-{@@-!!!++@@@$++#@+...---#**#-.....",
"........-;;{{{-----!!+++$$$$++--*##***-.........",
".........--{{{{;$$$######+++++***#**--..........",
"...........{{{{;$$@@@@@@@@$$;-###*--............",
"...........--{;$@@@@@@@@@@@$$;###-..............",
"....]]......-+;@@@@@@@@@@@@@$;#&--..............",
"...]^^].]]...+$@@@@@@@@@@@@@$;@@-........../....",
"...(]](]^]...;$@@@@@@@@@@@@$$-@@$-..%//+++/.....",
"..]]((.]+++..;##@@@@@@@@@&$;--@@$-..+++&&&+.....",
"..^]...(+##+;$$############$$-++++++@@@@&&+.....",
"..((....+###;$@@#######$@@@$$*+{{@@@@@--##+.....",
"........+*{-;@@@@@@@@@@@@@@@@$++{--...(-#*].....",
".......-*{-.;@@@@@@@@@@@@@@@@@+++-.....-#+(.....",
".......-*-..;@@@@@@@@@@@@@@@@@*$*-.....&#+......",
".......-;-..;@@@@@@@@@@@@@@@@@*$$-.....&#+......",
"......-;;-..;$@@@@@@@@@@@@@@@$*$$-.....**+......",
"......-;;-...*$@@@@@@@@@@@@$$$***-.....@*+......",
".......-#;-..;;#$$@@@$$####$$-**-.....+@++......",
"........-#;.-{$$###########$;!---....+@+........",
".........----{$@@@@@@@@@@@@${{$+....+++.........",
"...........-#-$@@@@@@@@@@@${@@$+................",
"...........-##-$@@@@@@@@$$&$@@$$+...............",
"...........-###-####$$$$&&!$@@@$+...............",
"......//...####*--;;;&&&---$$@@$+...............",
"......./%..###**--{{{$$$$$$--@@$+...............",
".......%%%.##***-.---------..-@@$+..............",
"..../%%=%%%****-..............$$#+..............",
".....%%__=%-***-..............###+..............",
".....=_::_%-***-..............##-...............",
"......(__(.<<-**-............-#-................",
"....<<.((..:<.-*-......./%...--.................",
"...<::<....((..-*-./%..%/=...--.................",
"...(<<(........-*-.=%%.%%....--.................",
"....((.........---..=%%%=.....-................."};
