/* XPM */
static char * player_a_xpm[] = {
"48 48 32 1",
" 	c None",
".	c #72751B",
"+	c #4E5332",
"@	c #62784A",
"#	c #171A0F",
"$	c #243117",
"%	c #7F8226",
"&	c #787B21",
"*	c #656C17",
"=	c #9F8965",
"-	c #E6DAAD",
";	c #FDFFD6",
">	c #796E67",
",	c #3D3734",
"'	c #302D21",
")	c #364922",
"!	c #84AE56",
"~	c #B3B0A9",
"{	c #A2814F",
"]	c #636917",
"^	c #9CA8AD",
"/	c #6B3840",
"(	c #3A1F1D",
"_	c #B34D5C",
":	c #8D4953",
"<	c #BD7247",
"[	c #CD9757",
"}	c #80592D",
"|	c #AB7B44",
"1	c #BD9842",
"2	c #A2783C",
"3	c #C6A740",
"..............................+@@@@@............",
"............................@+@++++#............",
"..........................@+@@+++++#............",
"........................@+@@++++++$#............",
"........%&&........@@@@@++++++++$$#.............",
".........&&&.....@@@@@@$$+++++$$$#..............",
"..........**...@@@+++++++$+++$$$$#..............",
"..............@@+++++++++++$$$$$#...............",
".............@@+++++++++++++$$$$#...............",
".............@@@+++++++++++++$$$#...............",
"..............==@@++++++++++++$$#...............",
".............=--==@@+++++++++++#................",
".............=;-->>,++++++++++++#...............",
".............-''=->>++++++++++++#...............",
".............--=;>>>@+++++++++++$#..............",
".............--)!''-@$+++++++++++$#.............",
".............--)!!;-=@$++++++++++++#............",
"............---)!;;;-=@$++++++++++$$#...........",
"...........'';--;;---==@$++++++++$$$$#..........",
"....~~.....=--------==#$++++++++$$$$#...........",
"...~{{~.~~.=--------=#$+++++++$$$$$#.......%....",
"...]~~]~{~..=------=#$++++++++$$$##.&%%...%.....",
"..~~]].~~]...=----==$++++++$$$$##....%^^.%%.....",
"..{~...]]........#############.......^{{^&&.....",
"..]].............//($$$$$$#..........]^^]~~.....",
"................_:/($$$$$$$#..........]].{~.....",
"..............._:/('$$$$$$$#.............]].....",
"...............:/(''$$+$$$$$#...................",
"...............(('''$++$+$$$#...................",
"................=-<'$++$+++$$#..................",
"................=[<}$+++$++$+#..................",
"................=;|<#+++$+++++..................",
"................;;[[#+++++++++..................",
"...............;--='#+++++++++#.................",
"..............;;-=='#++++++++++#................",
"..............=--='-#+++++++++++#...............",
"..............=-='--#++++++++++++#..............",
"......%%......'-'=--#+++++++++++++#.....;;;;....",
".......%&....%.''=--#++++++++++++++#....----;...",
".......&&&.&%....=--#++++++++++$++++#..;-----...",
"....%&&*&&&&*....=--#+++$++$+++++++++#.-----....",
".....&&11*&&*....=--++++++++++++$++++#-==.......",
".....*1221&*.....=>-++++$+++$++++$++$#''........",
"......]11].33....,>-+++++$+++$+++$$#............",
"....33.]]..23.....>,+++++$++$$$$$##.............",
"...3223....]].....,,$+++$$$$$####...............",
"...]33].........;;--$$$$$####...................",
"....]].........;====#####......................."};
