/* XPM */
static char * player_e_xpm[] = {
"48 48 32 1",
" 	c None",
".	c #72751B",
"+	c #62784A",
"@	c #171A0F",
"#	c #4E5332",
"$	c #243117",
"%	c #7F8226",
"&	c #787B21",
"*	c #656C17",
"=	c #9F8965",
"-	c #E6DAAD",
";	c #FDFFD6",
">	c #302D21",
",	c #AB7B44",
"'	c #CD9757",
")	c #84AE56",
"!	c #364922",
"~	c #E2B179",
"{	c #80592D",
"]	c #BC8D57",
"^	c #BD7247",
"/	c #B3B0A9",
"(	c #A2814F",
"_	c #636917",
":	c #9CA8AD",
"<	c #3A1F1D",
"[	c #6B3840",
"}	c #8D4953",
"|	c #B34D5C",
"1	c #BD9842",
"2	c #A2783C",
"3	c #C6A740",
"..............++++++............................",
"..............@####+#+..........................",
"..............@#####++#+........................",
"..............@$######++#+......................",
"........%&&....@$$########+++++.................",
".........&&&....@$$######$$++++++...............",
"..........**....@$$$$###$#######+++.............",
".................@$$$$$###########++............",
".................@$$$$#############++...........",
".................@$$$#############+++...........",
".................@$#############++==............",
"..................@###########++==--=...........",
".................@###########+=----;=...........",
".................@###########+---=>>-...........",
"................@$###########,''-;=--...........",
"...............@$###########$',>>)!--...........",
"..............@############$+''~))!--...........",
".............@$$##########$+{,]]])!---..........",
"............@$$$$########$+^^'''~~--;>>.........",
"....//.......@$$$$########$@{,,-------=.........",
".../((/.//....@$$$$########$@^--------=....%....",
"..._//_/(/.....@@$$$########$==------=%...%.....",
"..//__.//_.......@@$$$$######@==----=%::.%%.....",
"..(/...__..........@$$$$$$$$$$@@===..:((:&&.....",
"..__...................@$$$$$@<[[...._::_//.....",
"......................@$$$$$$@<[}|....__.(/.....",
"......................@$$$$$$@><[}|......__.....",
".....................@$$$$$#$@>><[}.............",
".....................@$$$#$##@>>><<.............",
"....................@$$###$##@>=-=..............",
"....................@#$##$###@==-=..............",
"...................@#####$###>=-;=..............",
"...................@#########>--;;..............",
"...................##########>>=--;.............",
"..................@##########>>==-;;............",
".................@###########>->=--=............",
"................@############=-->=-=............",
"......;;;;.....@#############=--=>->............",
".....;----...%@##############^'-=>>.............",
".....-----;&%@####$##########{,,=...............",
"....%&-----&@#########$##$###^'-=...............",
".....&&11==-@####$###########@--=...............",
".....*1221>>@$##$####$###$###@--=...............",
"......_11_.33.@$$###$###$####@--=...............",
"....33.__..23..@@$$$$$##$####$=-................",
"...3223....__....@@@@$$$$$###$==................",
"..._33_............*&@@@@$$$$$--;;..............",
"....__..............*&&&*@@@@@====;............."};
