/* XPM */
static char * player_w_xpm[] = {
"48 48 19 1",
" 	c None",
".	c #72751B",
"+	c #62784A",
"@	c #171A0F",
"#	c #4E5332",
"$	c #7F8226",
"%	c #787B21",
"&	c #243117",
"*	c #B3B0A9",
"=	c #A2814F",
"-	c #636917",
";	c #9CA8AD",
">	c #FDFFD6",
",	c #E6DAAD",
"'	c #9F8965",
")	c #302D21",
"!	c #C6A740",
"~	c #A2783C",
"{	c #656C17",
".............+..................................",
"............@++....................@............",
"............@#++..................+@............",
"...........@###+.................++#@...........",
"........$%%@###++...............+++#@...........",
".........%%@####++.............+++##@...........",
"..........@&####+++...........+++###&@..........",
"..........@&#######+++++++++++######&@..........",
"..........@&########################&@..........",
"..........@&&###&################&&#&@..........",
"..........@&&&&&##################&&&@..........",
"..........@&&&&####################&&@..........",
"...........@&&#####################&@...........",
"...........@########################@...........",
"..........@##########################@..........",
"..........@##########################@..........",
"..........&###########################@.........",
".........@&&########################&&&@........",
"........@&&&&######################&&&&&@.......",
"....**..@@&&&&&&&&###########&&&&&&&&&&@@.......",
"...*==*.**@&&&&&&&&&&&&&&&&&&&&&&&&&&@@....$....",
"...-**-*=*.@@&&&&&&&&&&&&&&&&&&&&&&@@$$...$.....",
"..**--.**-...@@@@&&&&&&&&&&&&&&&@@@..$;;.$$.....",
"..=*...--........@@&&&&&&&&&&@@@.....;==;%%.....",
"..--...............@@@@@@@@@@........-;;-**.....",
".................@&&&&&&&&&&&&&@......--.=*.....",
"................@&&&&&&&&&&&&&&&@........--.....",
"................@&&&&&&&&&&&&&&&@...............",
"................###&&&&&&&&&&&###@..............",
"................######&&&&&######@..............",
"...............@##################@.............",
"...............@##################@.............",
"..............@#############>,>####.............",
"..............@#############,,,####.............",
".............@&#############,,'####.............",
".............@&#############,,#####.............",
"............@&&#############,,#####@............",
"......$$...@&&##############,,#####&@...........",
".......$%.@&################,,#####&&@..........",
".......%@@#########&########',#########@@.......",
"....$@##################&&&'''####&#######@.....",
"....@####&#####&#######&@@'''#######&######@....",
".....@@&&#########&###&@)''''&#######&####@.....",
"......-@@&###&###&&#&&@))''')@&&######&&@@......",
"....!!.--@&&&&&&&&&&@@)''''''@@&&&&&&&@@........",
"...!~~!....--@@@@@)))))))))))))@@@@.............",
"...-!!-...........)'').%%.)'')..................",
"....--.............))%%%{..))..................."};
