/* XPM */
static char *player[] = {
/* columns rows colors chars-per-pixel */
"32 32 10 1 ",
"  c #3F2631",
". c #262B44",
"X c #52607C",
"o c #BD6C4A",
"O c #E19A65",
"+ c #EAA56C",
"@ c #8B9BB4",
"# c #F7C282",
"$ c #C0CBDC",
"% c None",
/* pixels */
"%%%%%%%%%%%%%%%%%%%%%%%%%%%%%%%%",
"%%%%%%%%%%%%%%%%%%%%%%%%%%%%%%%%",
"%%%%%%%%                %%%%%%%%",
"%%%%%%%%                %%%%%%%%",
"%%                            %%",
"%%                            %%",
"          @@$$$$@@$$@@          ",
"          @@$$$$@@$$@@          ",
"    ++++@@$$$$$$@@$$$$@@oo++    ",
"    ++++@@$$$$$$@@$$$$@@oo++    ",
"    ++++oo$$$$$$@@$$$$$$oo++    ",
"    ++++oo$$$$$$@@$$$$$$oo++    ",
"      oo++$$@@@@$$@@@@$$++      ",
"      oo++$$@@@@$$@@@@$$++      ",
"%%      $$@@..@@$$@@..@@      %%",
"%%      $$@@..@@$$@@..@@      %%",
"%%%%    $$##..##OO##..OO    %%%%",
"%%%%    $$##..##OO##..OO    %%%%",
"%%%%      OOoooooooooo      %%%%",
"%%%%      OOoooooooooo      %%%%",
"%%      $$@@oooooooooo$$      %%",
"%%      $$@@oooooooooo$$      %%",
"      $$$$$$oo      oo$$$$      ",
"      $$$$$$oo      oo$$$$      ",
"    oooo@@$$oo$$$$$$oo@@oooo    ",
"    oooo@@$$oo$$$$$$oo@@oooo    ",
"    oooo  @@$$$$$$$$@@  oooo    ",
"    oooo  @@$$$$$$$$@@  oooo    ",
"          XXXX    XXXX          ",
"          XXXX    XXXX          ",
"%%        $$$$    $$$$        %%",
"%%        $$$$    $$$$        %%"
};
