/* XPM */
static char * player_s_3_xpm[] = {
"48 48 35 1",
" 	c None",
".	c #72751B",
"+	c #62784A",
"@	c #171A0F",
"#	c #4E5332",
"$	c #7F8226",
"%	c #787B21",
"&	c #243117",
"*	c #73A8A0",
"=	c #3D3734",
"-	c #9F8965",
";	c #BD7247",
">	c #E6DAAD",
",	c #302D21",
"'	c #80592D",
")	c #AB7B44",
"!	c #CD9757",
"~	c #796E67",
"{	c #84AE56",
"]	c #364922",
"^	c #FDFFD6",
"/	c #B3B0A9",
"(	c #E2B179",
"_	c #A2814F",
":	c #636917",
"<	c #9CA8AD",
"[	c #6B3840",
"}	c #3A1F1D",
"|	c #8D4953",
"1	c #B34D5C",
"2	c #A47556",
"3	c #9C8C81",
"4	c #C6A740",
"5	c #A2783C",
"6	c #656C17",
"............+...................................",
"...........@++....................+@............",
"...........@#++..................++@............",
"...........###++...............+++##@...........",
"........$%%####++.............+++###@...........",
".........%@#####++............++####&@..........",
"..........@#####++++++++++++++++####&@..........",
"..........@#####++############+#####&@..........",
"..........@###&################+####&@..........",
"..........@&#&+##################&##&@..........",
"..........@&&+###################+&&&@...*......",
"..........@&&+####################+&&@..........",
"...........@######++===--===++#####@@......*....",
"...........#####++---=----====+#####@...........",
"..........@#####;;---------====+#####@..........",
"..........@####+;--->,>>>,,-====+####@..........",
".........@#####+'))!>>>>>>>>~~==+#####@.........",
".......@######;;!!!>>>>>>>>>>>>>-@######........",
"......@&&####@')),,{]^>>>^{]{,^>>-@####&@.......",
"....//.@@&&##@;!!!({]{>>>{{]{^>>>-@##&&@........",
".../__/./@@&&&@'))!(>>>^^>>>>>>>-@&&&@@....$....",
"...://:/_/.@&&&@!!>>>>>,,>>>>>>-@&&@@$$...$.....",
"..//::.//:......@@@>>>>>>>>>>@@......$<<.$$.....",
".._/...::..........@@@@@@@@@@........<__<%%.....",
"..::..............@&&[[}}[}&&@.......:<<://.....",
".................@&&}|[}}|1}&&........^^._/.....",
"................@&&}1|}--|11}&@......^>>.::.....",
"................&&&}[}---}[[}&&@.....>>>........",
"...............@##&&}-->>;}}&&##@...->>.........",
"...............@###&@->>>;;@&###@...->-.........",
"..............@####@->>>>!;'@####@.,>>..........",
".............@####@->>>>>)!!'@####@-,...........",
".............@####@>>>>>>!))!@####@,,...........",
".............@###@>>->>>>>!;!!####@,............",
"............@&###@>>->^-->>->>####&.............",
"............@&###@>>->^-->,->>####&.............",
"...........&&####@!>>,^,,,->>>#####&@...........",
"......$$..@#####@'))>-,,,->>>>@####&&@..........",
".......$%@####&#@;!>>>--->>>>>@##&###&@.........",
".......@@#######@2>>>>>>>>>>>>@########@........",
"....$%@#########@->>>>>>>>>>>>@#####&###@@......",
"....@####&######@->>>>>>~~~>>>&#######&####@....",
".....@##&###&###&@>>>>^^3~~>>>&########&#@@.....",
"......@@&&#&&###&@>>>>--=~~~>>&####&##&&@.......",
"....44.:@@&&&&&&&@->>-,,,=~~>-&&&&&&&&@@........",
"...4554...@@&&&&&@-->,.%$,~~--&&&&&@@@..........",
"...:44:...........,^^,.%%,^^^,..................",
"....::.............,,%%%6.,,,..................."};
