/* XPM */
static char * player_s_1_xpm[] = {
"48 48 33 1",
" 	c None",
".	c #72751B",
"+	c #62784A",
"@	c #171A0F",
"#	c #4E5332",
"$	c #7F8226",
"%	c #787B21",
"&	c #243117",
"*	c #73A8A0",
"=	c #9F8965",
"-	c #3D3734",
";	c #BD7247",
">	c #E6DAAD",
",	c #302D21",
"'	c #80592D",
")	c #AB7B44",
"!	c #796E67",
"~	c #CD9757",
"{	c #E2B179",
"]	c #FDFFD6",
"^	c #B3B0A9",
"/	c #A2814F",
"(	c #636917",
"_	c #9CA8AD",
":	c #3A1F1D",
"<	c #6B3840",
"[	c #B34D5C",
"}	c #8D4953",
"|	c #A47556",
"1	c #9C8C81",
"2	c #C6A740",
"3	c #A2783C",
"4	c #656C17",
"............+.....................+.............",
"...........@++...................++@............",
"...........@#+...................+#@............",
"..........@###++...............++###@...........",
"........$%@###+++.............+++###@...........",
".........%&####+++...........+++####&@..........",
"..........&####+++++++++++++++++####&@..........",
"..........&#####+++++++++++++++#####&@..........",
"..........&####+###############+####&@...*......",
"..........&&#&######################&@..*.*.....",
"..........&&&+###################&#&&@...*......",
"..........&&&+###################+&&&@..........",
"..........@&+######+++++++++#####+&&@......*....",
"..........@#####++==--====---++#####@......*....",
"..........#####+;;=========----+#####@..........",
"..........####+;;==>,,>>>,,=----+####@..........",
".........@####+''))>>>>>>>>>!---+#####..........",
".......@######;~~;~>>>>>>>>>>=>>=######@........",
"......@&&####@))){,,=>>>>>=,,]>>>@####&&@.......",
"....^^.@@&###@~~~~{>>>>>>>>>]>>>>@###&@@........",
"...^//^.^@&&&&')))~>>>>]>>>>>>>>=&&&&@.....$....",
"...(^^(^/^@@&&@;~~>>>>>,>>>>>>>=@&&@@$$...$.....",
"..^^((.^^(......@@@>>>>>>>>>@@@......$__.$$.....",
"../^...((..........@@@@@@@@@........._//_%%.....",
"..((..............@&:<<:<<:&@........(__(^^.....",
".................@&:[}<:<}[:&@......>]((./^.....",
"................@&&[[}:=:}[[&&@....>>>...((.....",
"...............@&&&<<:===:<<&&&@....=>..........",
"..............@###&::==>=;::&###@...=>..........",
"..............@####@==>>>;;@####@...=>..........",
"..............#####==>>>>~;'#####..,>>..........",
".............@####@>>>>>))~~@####@==,...........",
".............@####@>>>>>~~))@####@=,............",
".............@###@>=>>>>>>~;~@###@,.............",
"............@&###@>=>>]=]>>=>@###&@.............",
"............@&###@>=,>]=]>,=>@###&@.............",
"..........@&&####@~>=,],],=>>@####&&@...........",
"......$$..&#####@')>>=,,,=>>>=@####&&@..........",
".......$%@######@;~>>>===>>>>=@######&..........",
".......@@#######@|>>>>>>>>>>>=@#######@@........",
"....$@@###&#####@=>>>>>>>>>>>=@#####&###@@......",
"....@####&######@=>>>>>>!!!>>=&############.....",
".....@##&###&###&@>>>>]]1!!>>@&###&###&##@@.....",
"......@@&&#&&###&@>>>>==-!!!>@&###&&##&@@.......",
"....22.(@@&&&&&&&@=>>=,,,-!!=@&&&&&&&&@.........",
"...2332...@@&&&&&@=>>,.%$,!!=@&&&&&@@@..........",
"...(22(...........,]],.%%,]],...................",
"....((.............,,%%%4.,,...................."};
