/* XPM */
static char * wall_xpm[] = {
"48 48 262 2",
"  	c None",
". 	c #72751B",
"+ 	c #807F72",
"@ 	c #7C7B6E",
"# 	c #654D1B",
"$ 	c #88867D",
"% 	c #848279",
"& 	c #654E1B",
"* 	c #807F23",
"= 	c #664E1B",
"- 	c #654D1A",
"; 	c #644D1A",
"> 	c #644C1A",
", 	c #7F7E23",
"' 	c #828027",
") 	c #818028",
"! 	c #634C1A",
"~ 	c #818023",
"{ 	c #8B8632",
"] 	c #8A8532",
"^ 	c #8A8632",
"/ 	c #8C8733",
"( 	c #70721C",
"_ 	c #6F711C",
": 	c #6E701B",
"< 	c #674F1B",
"[ 	c #88852E",
"} 	c #71731C",
"| 	c #79791F",
"1 	c #6F721C",
"2 	c #828123",
"3 	c #6F641B",
"4 	c #797A1F",
"5 	c #74751E",
"6 	c #67511B",
"7 	c #7A7A1F",
"8 	c #75761F",
"9 	c #77781F",
"0 	c #76761F",
"a 	c #634B1A",
"b 	c #76771E",
"c 	c #64604B",
"d 	c #8D8B83",
"e 	c #605C48",
"f 	c #89877F",
"g 	c #68501B",
"h 	c #756816",
"i 	c #70651B",
"j 	c #70641B",
"k 	c #63651A",
"l 	c #62651A",
"m 	c #62641A",
"n 	c #78791F",
"o 	c #77771F",
"p 	c #634A1A",
"q 	c #66624D",
"r 	c #6C6E1B",
"s 	c #6A6C1B",
"t 	c #684F1B",
"u 	c #8D8733",
"v 	c #72741C",
"w 	c #72731C",
"x 	c #6D6F1B",
"y 	c #878679",
"z 	c #6B6D1B",
"A 	c #6A6C1A",
"B 	c #644B1A",
"C 	c #624A1A",
"D 	c #8E8C83",
"E 	c #654C1A",
"F 	c #654C1B",
"G 	c #848377",
"H 	c #674E1B",
"I 	c #684E1B",
"J 	c #8D8833",
"K 	c #6D701B",
"L 	c #614A1A",
"M 	c #664D1B",
"N 	c #86847B",
"O 	c #6B6E1B",
"P 	c #7F7F23",
"Q 	c #7F7E22",
"R 	c #6C6F1B",
"S 	c #61491A",
"T 	c #87857C",
"U 	c #76781E",
"V 	c #7E731D",
"W 	c #808023",
"X 	c #7E7D22",
"Y 	c #5D6019",
"Z 	c #60491A",
"` 	c #76761E",
" .	c #7E721D",
"..	c #898532",
"+.	c #5D6119",
"@.	c #60481A",
"#.	c #7F8226",
"$.	c #75761D",
"%.	c #898432",
"&.	c #5E6119",
"*.	c #74761D",
"=.	c #61481A",
"-.	c #7E7E22",
";.	c #746B1B",
">.	c #75771E",
",.	c #7B7B20",
"'.	c #7A7A20",
").	c #6E711C",
"!.	c #A2814F",
"~.	c #9CA8AD",
"{.	c #787B21",
"].	c #888431",
"^.	c #736B1B",
"/.	c #7A7B20",
"(.	c #797920",
"_.	c #6E631A",
":.	c #636917",
"<.	c #B3B0A9",
"[.	c #888331",
"}.	c #71741D",
"|.	c #7D711D",
"1.	c #787820",
"2.	c #6D631A",
"3.	c #60471A",
"4.	c #878331",
"5.	c #74751D",
"6.	c #70691A",
"7.	c #71691A",
"8.	c #61641A",
"9.	c #60631A",
"0.	c #5F6219",
"a.	c #61471A",
"b.	c #73741D",
"c.	c #75751E",
"d.	c #736A1A",
"e.	c #736B1A",
"f.	c #7C711D",
"g.	c #7B711D",
"h.	c #66691B",
"i.	c #686A1B",
"j.	c #686B1B",
"k.	c #7D7D22",
"l.	c #828028",
"m.	c #74741E",
"n.	c #73741E",
"o.	c #6E711B",
"p.	c #7B701D",
"q.	c #606219",
"r.	c #6C6852",
"s.	c #939189",
"t.	c #5E4619",
"u.	c #64671B",
"v.	c #676A1B",
"w.	c #7D7C22",
"x.	c #817F28",
"y.	c #5E6219",
"z.	c #72731E",
"A.	c #5D5815",
"B.	c #6B6F1B",
"C.	c #5E4519",
"D.	c #5E4518",
"E.	c #67691B",
"F.	c #807E27",
"G.	c #807F27",
"H.	c #5C5715",
"I.	c #5D5715",
"J.	c #7E7D23",
"K.	c #78771F",
"L.	c #5C5F19",
"M.	c #5D4319",
"N.	c #72741E",
"O.	c #71721E",
"P.	c #565A16",
"Q.	c #5C5615",
"R.	c #5C5815",
"S.	c #5C6019",
"T.	c #5D4318",
"U.	c #70721E",
"V.	c #575A17",
"W.	c #575B17",
"X.	c #565B16",
"Y.	c #686B1A",
"Z.	c #676A1A",
"`.	c #666A1A",
" +	c #515614",
".+	c #77761F",
"++	c #6A6D1B",
"@+	c #5D4218",
"#+	c #5E4418",
"$+	c #5F461A",
"%+	c #565A17",
"&+	c #686A1A",
"*+	c #66681A",
"=+	c #65681A",
"-+	c #505514",
";+	c #515514",
">+	c #76751F",
",+	c #75751F",
"'+	c #696C1B",
")+	c #5D4418",
"!+	c #66691A",
"~+	c #5E4419",
"{+	c #5F4619",
"]+	c #565916",
"^+	c #555916",
"/+	c #777620",
"(+	c #636619",
"_+	c #696C1A",
":+	c #5C4118",
"<+	c #5D4419",
"[+	c #64681A",
"}+	c #65671A",
"|+	c #5F4519",
"1+	c #5E6218",
"2+	c #5F6218",
"3+	c #606218",
"4+	c #505414",
"5+	c #767620",
"6+	c #636519",
"7+	c #75741E",
"8+	c #5A4018",
"9+	c #545816",
"0+	c #5D5F18",
"a+	c #5E6018",
"b+	c #5F6118",
"c+	c #4F5413",
"d+	c #626419",
"e+	c #626519",
"f+	c #5C5F17",
"g+	c #5D6017",
"h+	c #5D6018",
"i+	c #626619",
"j+	c #626518",
"k+	c #4E5313",
"l+	c #616418",
"m+	c #594018",
"n+	c #5C4217",
"o+	c #5C4117",
"p+	c #5C4018",
"q+	c #545815",
"r+	c #626418",
"s+	c #4E5213",
"t+	c #616518",
"u+	c #593E17",
"v+	c #5B3E18",
"w+	c #545715",
"x+	c #535715",
"y+	c #4D5213",
"z+	c #583C17",
"A+	c #656C17",
"B+	c #593D17",
"C+	c #5A3E17",
"D+	c #563917",
"E+	c #BD9842",
"F+	c #553916",
"G+	c #563916",
"H+	c #A2783C",
"I+	c #563716",
"J+	c #C6A740",
"K+	c #553616",
"L+	c #563516",
"M+	c #553516",
". + + + + + + + + + + + + . . . . @ @ @ @ @ @ @ @ @ @ # # # . . . . . . . . . . . . . . . . . . ",
"$ + + + + + + + + + + + + $ . . % @ @ @ @ @ @ @ @ @ & * * * # . . . . . . . . . . . . . . . . . ",
"$ + + + + + + + + + + + + $ . . % @ @ @ @ @ @ @ @ @ = * * * & . - ; > . . . . . . . . . . . . . ",
"$ + + + + + + + + + + + + $ . . % @ @ @ @ @ @ @ @ @ = * * * * & , ' ) ! . . . . . . . . . . . . ",
"$ + + + + + + + + + + + + $ . . % @ @ @ @ @ @ @ = = * ~ * { { ] , ' ) > . . . . . . . . . . . . ",
"$ + + + + + + + + + + + + $ . . % @ @ @ @ @ @ = { { { { ~ { { ^ * , ; . . . . . . . . . . . . . ",
"$ + + + + + + + + + + + + $ . . % @ @ @ @ @ @ = { { / { ( ( { { ] _ : > . . . . . . . . . . . . ",
"$ + + + + + + + + + + + + $ . . % @ @ @ @ @ @ < [ / / } } } { { ^ _ : > . . . . . . . . . . . . ",
"$ + + + + + + + + + + + + $ . . % @ @ @ @ @ @ @ < ~ | | } } ( ( 1 _ : > . . . . . . . . . . . . ",
"$ + + + + + + + + + + + + $ . . % @ @ @ @ @ @ < / / 2 | | 3 ( ( 1 _ - . . . . . . . . . . . . . ",
"$ + + + + + + + + + + + + $ . . % @ @ @ @ @ < / / / 2 4 4 3 ( ~ * _ 5 6 ! . . . . . . . . . . . ",
"$ + + + + + + + + + + + + $ . . % @ @ @ @ < / / / / 7 7 4 3 3 ~ * * 8 9 0 a . . . . . . . . . . ",
"$ + + + + + + + + + + + + $ . . % @ @ @ @ < 2 2 7 7 7 7 3 3 3 ~ * * , b 0 a . . . . . . . . . . ",
"c d d d d d d d d d d d d c . . e f f f f f g 2 2 h h i j k l m * * , n o p . . . . . . . . . . ",
". c q q q q q q q q q q c . . . . e e e e g / / 2 2 h i j k l r r s s 9 > . . . . . . . . . . . ",
". . . . . . . . . . . . . . . . . . . . . t / u 2 2 v v w k x r r s s ; . . . . . . . . . . . . ",
". y y y y y y y y y y y y . . . . + + + + t / u 2 v v v / / x x r z z A B C . . . . . . . . . . ",
"D y y y y y y y y y y y E F . . G + + H I / / u J J v v / / / r r z z : K x L . . . . . . . . . ",
"D y y y y y y y y y y E ] ] M . N + H / / / / u J J J 2 / / / / ~ O P Q K x R S . . . . . . . . ",
"D y y y y y y y y y y F ] ] ^ M T + H / / / / U u u u V / / / / W * P Q X x R Y Z . . . . . . . ",
"D y y y y y y y B E F P ] ^ { * M H 5 ` / / U U / u V V  . ./ / ~ * ] ..X x +.Y @.. . #.. . . . ",
"D y y y y y y B ..] ] * * ^ { * * ~ ~ b b b U U U $.$. . . ./ { ( 1 ] ..%.&.+.Y @.. #.. . . . . ",
"D y y y y y y B ..] ] ] ^ * * * * W ~ ~ b b b U U *.} } / / / ( ( _ _ ..%.&.Y =.. #.#.. . . . . ",
"D y y y y C B -.Q , ] ] ] ^ ;.{ { { ~ ~ >.b ~ ~ 2 } } 2 / / / ,.'._ ).: K x L !.~.{.{.. . . . . ",
"D y y y C ].%.%..., , ] ] ^.^ ^ { { ( 9 b { / / ~ } } ~ / / | /.'.(.)._.K R r @.:.<.<.. . . . . ",
"D y y =.[.[.%.%.%.5 , , P ;.] ] ^ * }.o ( { { { ~ } } ~ ~ |.,.'.'.1._.2.x R r 3.. !.<.. . . . . ",
"D y y =.4.[.].%.5.5 Q Q 6.7.;.;._ _ _ _ ( { { ~ ~ ~ ~ |.|.|.8.'.(.9.0.0.x R a.. . :.:.. . . . . ",
"D y y y =.[.[.b.b.c.5 d.d.d.e., , , _ _ _ _ ( * * W W W f.g.8.9.9.0.: x x @.. . . . . . . . . . ",
"D y y @.h.i.j.k.l.m.m.n.n.n.-.Q Q Q o.o._ _ _ ^ { { * * , p.9.9.q.0.K x R 3.. . . . . . . . . . ",
"r.s.t.u.v.v.w.x.l.5 5 &.y.z.%.%.-.: : A.A.o.] ] ] .., , , 9.9.0.0.R r B.r O C.. . . . . . . . . ",
". q D.h.E.v.F.G.n.n.&.&.z.z.].].H.H.I.I.: : ....] o.J.X X 0.x x K.K.O z z O L.M.. . . . . . . . ",
". . . C.h.E.z.N.N.Y Y Y O.O.R P.Q.Q.Q.R.x K K K : : k.k.x x R K.o o z z S.L.L.T.. . . . . . . . ",
". . . . D.C.h.E.S.S.S.Y U.O.V.W.X.X.Y.Z.`.x x x  +K R R R r r o .+.+z ++S.L.@++ + + + + . . . . ",
". . . . . . #+h.h.L.$+S.S.S.S.%+V.Z.&+*+=+-+-+;+;+R r r &.o >+.+.+0 0 ,+'+M.+ + + + + + + + . . ",
". . . . . . )+!+!+~+. C.L.L.L.{+%+Z.!+=+]+^+]+-+-+-+-+-+/+.+0 0 (+>+,+,+c._+:++ + + + + + + $ . ",
". . . . . . . @+@+. . . T.<+~+. <+[+[+}+|+^+1+2+3+4+4+4+5+,+0 (+6+6+,+c.7+Y.8++ + + + + + + $ . ",
". . . . . . . . . . . . . . . . . T.M.T.9+0+a+b+2+^+c+(+6+d+6+6+e+c.c.m.m.8++ + + + + + + + $ . ",
". . . . . . #.#.. . . . . . . . . . . . T.f+g+h+@+9+9+i+e+e+j+k+7+7+m.l+l+m++ + + + + + + + $ . ",
". . . . . . . #.{.. . . . #.. . . . . . . n+o+n+. p+q+j+r+j+k+s+m.m.m.l+t+;+u++ + + + + + + $ . ",
". . . . . . . {.{.{.. {.#.. . . . . . . . . . . . v+w+x+q+;+y+l+m.m.l+t+;+;+z++ + + + + + + $ . ",
". . . . #.{.{.A+{.{.{.{.A+. . . . . . . . . . . . . B+u+C+C+;+t+l+t+j+4+;+;+D++ + + + d d d c . ",
". . . . . {.{.E+E+A+{.{.A+. . . . . . . . . . . . . . . . . C+;+j+r+;+4+F+G++ + + + d c c c . . ",
". . . . . A+E+H+H+E+{.A+. . . . . . . . . . . . . . . . . . C+;+4+4+4+I++ + + + + d c . . . . . ",
". . . . . . :.E+E+:.. J+J+. . . . . . . . . . . . . . . . . . I+4+4+4+K++ + + + d c . . . . . . ",
". . . . J+J+. :.:.. . H+J+. . . . . . . . . . . #.{.. . . . . . L+L+M++ + + + d c . . . . . . . ",
". . . J+H+H+J+. . . . :.:.. . . . . . #.{.. . {.#.A+. . . . . . . c d d d d d c . . . . . . . . ",
". . . :.J+J+:.. . . . . . . . . . . . A+{.{.. {.{.. . . . . . . . . c c c c c . . . . . . . . . ",
". . . . :.:.. . . . . . . . . . . . . . A+{.{.{.A+. . . . . . . . . . . . . . . . . . . . . . . "};
