/* XPM */
static char *wall[] = {
/* columns rows colors chars-per-pixel */
"32 32 3 1 ",
"  c #52607C",
". c #8B9BB4",
"X c #C0CBDC",
/* pixels */
"                                ",
"                                ",
"............  ..XXXXXXXX..  ....",
"............  ..XXXXXXXX..  ....",
"............  ............  ....",
"............  ............  ....",
"............  ............  ....",
"............  ............  ....",
"                                ",
"                                ",
"XXXX..  ............  ..XXXXXXXX",
"XXXX..  ............  ..XXXXXXXX",
"......  ............  ..........",
"......  ............  ..........",
"......  ............  ..........",
"......  ............  ..........",
"                                ",
"                                ",
"............  ..XXXXXXXX..  ....",
"............  ..XXXXXXXX..  ....",
"............  ............  ....",
"............  ............  ....",
"............  ............  ....",
"............  ............  ....",
"                                ",
"                                ",
"XXXX..  ............  ..XXXXXXXX",
"XXXX..  ............  ..XXXXXXXX",
"......  ............  ..........",
"......  ............  ..........",
"......  ............  ..........",
"......  ............  .........."
};
