/* XPM */
static char *exit[] = {
/* columns rows colors chars-per-pixel */
"32 32 5 1 ",
"  c #262B44",
". c #52607C",
"X c #BD6C4A",
"o c #8B9BB4",
"O c #C0CBDC",
/* pixels */
"....                        ....",
"....                        ....",
"oo                            oo",
"oo                            oo",
"      oooooooo....oooooooo      ",
"      oooooooo....oooooooo      ",
"    oo..oooooo....oooooo..oo    ",
"    oo..oooooo....oooooo..oo    ",
"    oooo                oooo    ",
"    oooo                oooo    ",
"    oooo                oooo    ",
"    oooo                oooo    ",
"    OOOO                OOOO    ",
"    OOOO                OOOO    ",
"  ......                ......  ",
"  ......                ......  ",
"  ......                ......  ",
"  ......                ......  ",
"    oooo                oooo    ",
"    oooo                oooo    ",
"    oooo                oooo    ",
"    oooo                oooo    ",
"    OOOO                OOOO    ",
"    OOOO                OOOO    ",
"  ......    XX    XX    ......  ",
"  ......    XX    XX    ......  ",
"  ......  XX  XXXX  XX  ......  ",
"  ......  XX  XXXX  XX  ......  ",
"    oooo    XXXXXXXX    oooo    ",
"    oooo    XXXXXXXX    oooo    ",
"    oooo  XXXXXXXXXXXX  oooo    ",
"    oooo  XXXXXXXXXXXX  oooo    "
};
