/* XPM */
static char * player_right_xpm[] = {
"32 32 14 1",
" 	c #755338",
".	c #503625",
"+	c #000000",
"@	c #573A23",
"#	c #402717",
"$	c #AC7B5D",
"%	c #21110D",
"&	c #C1AC8F",
"*	c #787E97",
"=	c #A4A8B5",
"-	c #2C65B5",
";	c #553C2B",
">	c #1D438A",
",	c #3A2720",
"            .               .   ",
"            .               .   ",
".... ..    ......... ..    .....",
"                                ",
"                                ",
"          ++++ ++               ",
"     .    +@@#+@+++  .          ",
"........ .++@@#@#@@+.... ..    .",
" .       +#@@@@@@@@@+           ",
"        +#@@@@@@@@@@@+          ",
"        +#@@#@@@##@@@+          ",
"        +####@@@#$$#@#+         ",
"...   ..+#@##@@#$$$$##+.........",
"        +#@@$#@$%&&%+#+     .   ",
"        +##@$$#&%&&%++          ",
"         +##$$&&&&&&+           ",
"          +##$$&&&&$+       .   ",
"           +##$$$$$+        .   ",
".... ..    +##@***#+ ..    .....",
"           +#@@**=#+            ",
"          +&&@@*==#$+           ",
"          +&&@@---#$+           ",
"     .    ;+>-->--++;.          ",
"........ ,,+#@++#@+,,,.. ..    .",
" .       ;;;;;;;;,;;;;          ",
"          ;;;;;;;;;;;           ",
"                                ",
"                                ",
"...   .............   ..........",
"            .               .   ",
"                                ",
"                                "};
